<svg baseProfile="full" height="192.0mm" version="1.1" viewBox="0 0 192.0 192.0" width="192.0mm" xmlns="http://www.w3.org/2000/svg" xmlns:ev="http://www.w3.org/2001/xml-events" xmlns:xlink="http://www.w3.org/1999/xlink"><defs /><rect fill="none" height="192.0" stroke="#0000FF" stroke-width="0.01" width="192.0" x="0" y="0" /><circle cx="4.0" cy="4.0" fill="none" r="1.65" stroke="#0000FF" stroke-width="0.01" /><circle cx="188.0" cy="4.0" fill="none" r="1.65" stroke="#0000FF" stroke-width="0.01" /><circle cx="4.0" cy="188.0" fill="none" r="1.65" stroke="#0000FF" stroke-width="0.01" /><circle cx="188.0" cy="188.0" fill="none" r="1.65" stroke="#0000FF" stroke-width="0.01" /><circle cx="16.400000000000006" cy="36.6" fill="none" r="2.5" stroke="#0000FF" stroke-width="0.01" /><circle cx="16.400000000000006" cy="46.6" fill="none" r="2.5" stroke="#0000FF" stroke-width="0.01" /><circle cx="16.400000000000006" cy="26.6" fill="none" r="2.5" stroke="#0000FF" stroke-width="0.01" /><rect fill="none" height="4.0" stroke="#0000FF" stroke-width="0.01" width="10.0" x="159.0" y="28.0" /><circle cx="150.0" cy="30.0" fill="none" r="1.1" stroke="#0000FF" stroke-width="0.01" /><circle cx="178.0" cy="30.0" fill="none" r="1.1" stroke="#0000FF" stroke-width="0.01" /><rect fill="none" height="3.0" stroke="#0000FF" stroke-width="0.01" width="14.0" x="90.5" y="42.6" /><circle cx="88.0" cy="144.0" fill="none" r="1.0" stroke="#0000FF" stroke-width="0.01" /><circle cx="92.0" cy="144.0" fill="none" r="1.0" stroke="#0000FF" stroke-width="0.01" /><circle cx="96.0" cy="144.0" fill="none" r="1.0" stroke="#0000FF" stroke-width="0.01" /><circle cx="100.0" cy="144.0" fill="none" r="1.0" stroke="#0000FF" stroke-width="0.01" /><circle cx="104.0" cy="144.0" fill="none" r="1.0" stroke="#0000FF" stroke-width="0.01" /><circle cx="88.0" cy="148.0" fill="none" r="1.0" stroke="#0000FF" stroke-width="0.01" /><circle cx="92.0" cy="148.0" fill="none" r="1.0" stroke="#0000FF" stroke-width="0.01" /><circle cx="96.0" cy="148.0" fill="none" r="1.0" stroke="#0000FF" stroke-width="0.01" /><circle cx="100.0" cy="148.0" fill="none" r="1.0" stroke="#0000FF" stroke-width="0.01" /><circle cx="104.0" cy="148.0" fill="none" r="1.0" stroke="#0000FF" stroke-width="0.01" /><circle cx="88.0" cy="152.0" fill="none" r="1.0" stroke="#0000FF" stroke-width="0.01" /><circle cx="92.0" cy="152.0" fill="none" r="1.0" stroke="#0000FF" stroke-width="0.01" /><circle cx="96.0" cy="152.0" fill="none" r="1.0" stroke="#0000FF" stroke-width="0.01" /><circle cx="100.0" cy="152.0" fill="none" r="1.0" stroke="#0000FF" stroke-width="0.01" /><circle cx="104.0" cy="152.0" fill="none" r="1.0" stroke="#0000FF" stroke-width="0.01" /><circle cx="88.0" cy="156.0" fill="none" r="1.0" stroke="#0000FF" stroke-width="0.01" /><circle cx="92.0" cy="156.0" fill="none" r="1.0" stroke="#0000FF" stroke-width="0.01" /><circle cx="96.0" cy="156.0" fill="none" r="1.0" stroke="#0000FF" stroke-width="0.01" /><circle cx="100.0" cy="156.0" fill="none" r="1.0" stroke="#0000FF" stroke-width="0.01" /><circle cx="104.0" cy="156.0" fill="none" r="1.0" stroke="#0000FF" stroke-width="0.01" /><circle cx="88.0" cy="160.0" fill="none" r="1.0" stroke="#0000FF" stroke-width="0.01" /><circle cx="92.0" cy="160.0" fill="none" r="1.0" stroke="#0000FF" stroke-width="0.01" /><circle cx="96.0" cy="160.0" fill="none" r="1.0" stroke="#0000FF" stroke-width="0.01" /><circle cx="100.0" cy="160.0" fill="none" r="1.0" stroke="#0000FF" stroke-width="0.01" /><circle cx="104.0" cy="160.0" fill="none" r="1.0" stroke="#0000FF" stroke-width="0.01" /><path d="M186.03289794921875 554.7531127929688H499.03289794921875V700H186.03289794921875ZM186.03289794921875 280.96710205078125H489.03289794921875V416.89300537109375H186.03289794921875ZM73.7860107421875 700V0H236.46087646484375V700Z" fill="#000000" stroke="none" transform="translate(80.40507136753627,92.0) scale(0.007142857142857143,-0.007142857142857143) translate(-73.7860107421875,0)" /><path d="M31.89300537109375 230Q31.89300537109375 157.89300537109375 66.18930053710938 103.70370483398438Q100.485595703125 49.514404296875 160.07818603515625 19.7572021484375Q219.6707763671875 -10 294.74896240234375 -10Q370.20574951171875 -10 429.6090393066406 19.7572021484375Q489.0123291015625 49.514404296875 523.3086242675781 103.70370483398438Q557.6049194335938 157.89300537109375 557.6049194335938 230Q557.6049194335938 303.10699462890625 523.3086242675781 357.10699462890625Q489.0123291015625 411.10699462890625 429.6090393066406 440.86419677734375Q370.20574951171875 470.62139892578125 294.74896240234375 470.62139892578125Q219.6707763671875 470.62139892578125 160.07818603515625 440.86419677734375Q100.485595703125 411.10699462890625 66.18930053710938 357.10699462890625Q31.89300537109375 303.10699462890625 31.89300537109375 230ZM187.46087646484375 230Q187.46087646484375 265.572021484375 202.05758666992188 291.5761413574219Q216.654296875 317.58026123046875 240.9691162109375 331.744873046875Q265.283935546875 345.90948486328125 294.74896240234375 345.90948486328125Q324.2139892578125 345.90948486328125 348.52880859375 331.744873046875Q372.8436279296875 317.58026123046875 387.4403381347656 291.5761413574219Q402.03704833984375 265.572021484375 402.03704833984375 230Q402.03704833984375 194.427978515625 387.4403381347656 168.6131591796875Q372.8436279296875 142.79833984375 348.52880859375 128.755126953125Q324.2139892578125 114.7119140625 294.74896240234375 114.7119140625Q265.283935546875 114.7119140625 240.9691162109375 128.755126953125Q216.654296875 142.79833984375 202.05758666992188 168.6131591796875Q187.46087646484375 194.427978515625 187.46087646484375 230Z" fill="#000000" stroke="none" transform="translate(83.69254913330077,92.0) scale(0.007142857142857143,-0.007142857142857143) translate(-31.89300537109375,0)" /><path d="M207.81890869140625 460H59.46502685546875V0H207.81890869140625ZM340.60491943359375 303.6461181640625 406.3538818359375 433.02880859375Q393.94647216796875 450.7860107421875 371.20367431640625 461.014404296875Q348.46087646484375 471.2427978515625 323.46087646484375 471.2427978515625Q285.24688720703125 471.2427978515625 250.20779418945312 445.9320983886719Q215.168701171875 420.62139892578125 193.49380493164062 377.8106994628906Q171.81890869140625 335 171.81890869140625 280L207.81890869140625 227.18109130859375Q207.81890869140625 260.18109130859375 216.80450439453125 283.0740966796875Q225.79010009765625 305.96710205078125 242.79010009765625 317.860107421875Q259.79010009765625 329.75311279296875 281.7119140625 329.75311279296875Q301.7119140625 329.75311279296875 315.33331298828125 322.6996154785156Q328.9547119140625 315.6461181640625 340.60491943359375 303.6461181640625Z" fill="#000000" stroke="none" transform="translate(87.6976342337472,92.0) scale(0.007142857142857143,-0.007142857142857143) translate(-59.46502685546875,0)" /><path d="M186.03289794921875 0H539.0328979492188V139.03289794921875H186.03289794921875ZM186.03289794921875 560.9671020507812H539.0328979492188V700H186.03289794921875ZM186.03289794921875 299.60906982421875H519.0328979492188V435.53497314453125H186.03289794921875ZM73.7860107421875 700V0H236.46087646484375V700Z" fill="#000000" stroke="none" transform="translate(91.92541176932197,92.0) scale(0.007142857142857143,-0.007142857142857143) translate(-73.7860107421875,0)" /><path d="M760.9259033203125 296.2139892578125Q760.9259033203125 351.97119140625 746.8435974121094 390.9176940917969Q732.7612915039062 429.86419677734375 701.3147888183594 450.2427978515625Q669.8682861328125 470.62139892578125 616.0328979492188 470.62139892578125Q569.4114990234375 470.62139892578125 532.168701171875 450.6748962402344Q494.9259033203125 430.7283935546875 469.68310546875 394.56378173828125Q455.54730224609375 431.83538818359375 423.53289794921875 451.2283935546875Q391.51849365234375 470.62139892578125 337.9259033203125 470.62139892578125Q290.57611083984375 470.62139892578125 257.5226135253906 449.7572021484375Q224.4691162109375 428.89300537109375 204.7119140625 391.7572021484375V460H59.46502685546875V0H204.7119140625V280Q204.7119140625 307.92181396484375 213.36212158203125 326.7757263183594Q222.0123291015625 345.629638671875 237.312744140625 355.0905456542969Q252.6131591796875 364.55145263671875 272.56378173828125 364.55145263671875Q303.89300537109375 364.55145263671875 317.6255187988281 343.0761413574219Q331.3580322265625 321.600830078125 331.3580322265625 280V0H482.81890869140625V280Q482.81890869140625 307.92181396484375 491.4691162109375 326.7757263183594Q500.11932373046875 345.629638671875 515.4197387695312 355.0905456542969Q530.7201538085938 364.55145263671875 550.6707763671875 364.55145263671875Q582 364.55145263671875 595.7325134277344 343.0761413574219Q609.4650268554688 321.600830078125 609.4650268554688 280V0H760.9259033203125Z" fill="#000000" stroke="none" transform="translate(95.49860382080077,92.0) scale(0.007142857142857143,-0.007142857142857143) translate(-59.46502685546875,0)" /><path d="M31.89300537109375 230Q31.89300537109375 157.89300537109375 66.18930053710938 103.70370483398438Q100.485595703125 49.514404296875 160.07818603515625 19.7572021484375Q219.6707763671875 -10 294.74896240234375 -10Q370.20574951171875 -10 429.6090393066406 19.7572021484375Q489.0123291015625 49.514404296875 523.3086242675781 103.70370483398438Q557.6049194335938 157.89300537109375 557.6049194335938 230Q557.6049194335938 303.10699462890625 523.3086242675781 357.10699462890625Q489.0123291015625 411.10699462890625 429.6090393066406 440.86419677734375Q370.20574951171875 470.62139892578125 294.74896240234375 470.62139892578125Q219.6707763671875 470.62139892578125 160.07818603515625 440.86419677734375Q100.485595703125 411.10699462890625 66.18930053710938 357.10699462890625Q31.89300537109375 303.10699462890625 31.89300537109375 230ZM187.46087646484375 230Q187.46087646484375 265.572021484375 202.05758666992188 291.5761413574219Q216.654296875 317.58026123046875 240.9691162109375 331.744873046875Q265.283935546875 345.90948486328125 294.74896240234375 345.90948486328125Q324.2139892578125 345.90948486328125 348.52880859375 331.744873046875Q372.8436279296875 317.58026123046875 387.4403381347656 291.5761413574219Q402.03704833984375 265.572021484375 402.03704833984375 230Q402.03704833984375 194.427978515625 387.4403381347656 168.6131591796875Q372.8436279296875 142.79833984375 348.52880859375 128.755126953125Q324.2139892578125 114.7119140625 294.74896240234375 114.7119140625Q265.283935546875 114.7119140625 240.9691162109375 128.755126953125Q216.654296875 142.79833984375 202.05758666992188 168.6131591796875Q187.46087646484375 194.427978515625 187.46087646484375 230Z" fill="#000000" stroke="none" transform="translate(100.75903865269251,92.0) scale(0.007142857142857143,-0.007142857142857143) translate(-31.89300537109375,0)" /><path d="M207.81890869140625 460H59.46502685546875V0H207.81890869140625ZM340.60491943359375 303.6461181640625 406.3538818359375 433.02880859375Q393.94647216796875 450.7860107421875 371.20367431640625 461.014404296875Q348.46087646484375 471.2427978515625 323.46087646484375 471.2427978515625Q285.24688720703125 471.2427978515625 250.20779418945312 445.9320983886719Q215.168701171875 420.62139892578125 193.49380493164062 377.8106994628906Q171.81890869140625 335 171.81890869140625 280L207.81890869140625 227.18109130859375Q207.81890869140625 260.18109130859375 216.80450439453125 283.0740966796875Q225.79010009765625 305.96710205078125 242.79010009765625 317.860107421875Q259.79010009765625 329.75311279296875 281.7119140625 329.75311279296875Q301.7119140625 329.75311279296875 315.33331298828125 322.6996154785156Q328.9547119140625 315.6461181640625 340.60491943359375 303.6461181640625Z" fill="#000000" stroke="none" transform="translate(104.76412375313893,92.0) scale(0.007142857142857143,-0.007142857142857143) translate(-59.46502685546875,0)" /><path d="M530.1028442382812 460H374.85595703125L227.884765625 92.19342041015625L305.62548828125 90.67901611328125L157.139892578125 460H-9.32098388671875L189.6707763671875 37.03704833984375L77.96295166015625 -220H230.10284423828125Z" fill="#000000" stroke="none" transform="translate(107.4919012887137,92.0) scale(0.007142857142857143,-0.007142857142857143) translate(9.32098388671875,0)" /><path d="M59.46502685546875 780V0H210.9259033203125V780Z" fill="#000000" stroke="none" transform="translate(82.47339869907924,100.0) scale(0.007142857142857143,-0.007142857142857143) translate(-59.46502685546875,0)" /><path d="M31.89300537109375 230Q31.89300537109375 157.89300537109375 66.18930053710938 103.70370483398438Q100.485595703125 49.514404296875 160.07818603515625 19.7572021484375Q219.6707763671875 -10 294.74896240234375 -10Q370.20574951171875 -10 429.6090393066406 19.7572021484375Q489.0123291015625 49.514404296875 523.3086242675781 103.70370483398438Q557.6049194335938 157.89300537109375 557.6049194335938 230Q557.6049194335938 303.10699462890625 523.3086242675781 357.10699462890625Q489.0123291015625 411.10699462890625 429.6090393066406 440.86419677734375Q370.20574951171875 470.62139892578125 294.74896240234375 470.62139892578125Q219.6707763671875 470.62139892578125 160.07818603515625 440.86419677734375Q100.485595703125 411.10699462890625 66.18930053710938 357.10699462890625Q31.89300537109375 303.10699462890625 31.89300537109375 230ZM187.46087646484375 230Q187.46087646484375 265.572021484375 202.05758666992188 291.5761413574219Q216.654296875 317.58026123046875 240.9691162109375 331.744873046875Q265.283935546875 345.90948486328125 294.74896240234375 345.90948486328125Q324.2139892578125 345.90948486328125 348.52880859375 331.744873046875Q372.8436279296875 317.58026123046875 387.4403381347656 291.5761413574219Q402.03704833984375 265.572021484375 402.03704833984375 230Q402.03704833984375 194.427978515625 387.4403381347656 168.6131591796875Q372.8436279296875 142.79833984375 348.52880859375 128.755126953125Q324.2139892578125 114.7119140625 294.74896240234375 114.7119140625Q265.283935546875 114.7119140625 240.9691162109375 128.755126953125Q216.654296875 142.79833984375 202.05758666992188 168.6131591796875Q187.46087646484375 194.427978515625 187.46087646484375 230Z" fill="#000000" stroke="none" transform="translate(83.80526210239955,100.0) scale(0.007142857142857143,-0.007142857142857143) translate(-31.89300537109375,0)" /><path d="M-3.10699462890625 460 263.4979248046875 -53.6419677734375 530.1028442382812 460H368.6419677734375L263.4979248046875 204.5966796875L158.3538818359375 460Z" fill="#000000" stroke="none" transform="translate(87.81034720284597,100.0) scale(0.007142857142857143,-0.007142857142857143) translate(3.10699462890625,0)" /><path d="M293.39093017578125 -10Q381.06170654296875 -10 442.3970947265625 23.84979248046875Q503.73248291015625 57.6995849609375 540.3538818359375 125.6419677734375L405.13580322265625 158.56378173828125Q388.2139892578125 128.99176025390625 359.6707763671875 114.0843505859375Q331.1275634765625 99.17694091796875 290.96295166015625 99.17694091796875Q256.39093017578125 99.17694091796875 232.40121459960938 114.8271484375Q208.4114990234375 130.47735595703125 196.07199096679688 160.08847045898438Q183.73248291015625 189.6995849609375 184.3538818359375 231.89300537109375Q184.73248291015625 278.0576171875 196.32919311523438 308.3436279296875Q207.9259033203125 338.629638671875 230.79421997070312 353.77984619140625Q253.66253662109375 368.9300537109375 287.85595703125 368.9300537109375Q315.04937744140625 368.9300537109375 335.0390930175781 356.9012451171875Q355.02880859375 344.8724365234375 366.2469177246094 322.95062255859375Q377.46502685546875 301.02880859375 377.46502685546875 270.59259033203125Q377.46502685546875 263.59259033203125 373.8436279296875 253.40328979492188Q370.22222900390625 243.2139892578125 365.3580322265625 235.7283935546875L401.08642578125 281.7283935546875H117.0699462890625V197.572021484375H537.4114990234375Q538.654296875 205.16461181640625 538.8435974121094 215.7716064453125Q539.0328979492188 226.37860107421875 539.0328979492188 237.10699462890625Q539.0328979492188 311.34979248046875 510.2366027832031 363.4176940917969Q481.4403076171875 415.485595703125 426.10491943359375 442.7427978515625Q370.76953125 470 290.96295166015625 470Q210.53497314453125 470 152.51028442382812 440.9320983886719Q94.485595703125 411.86419677734375 63.189300537109375 358.1748962402344Q31.89300537109375 304.485595703125 31.89300537109375 230Q31.89300537109375 156.514404296875 63.7427978515625 102.82510375976562Q95.59259033203125 49.13580322265625 154.41357421875 19.567901611328125Q213.23455810546875 -10 293.39093017578125 -10Z" fill="#000000" stroke="none" transform="translate(91.86898890904017,100.0) scale(0.007142857142857143,-0.007142857142857143) translate(-31.89300537109375,0)" /><path d="M73.7860107421875 700V0H248.2674560546875V700ZM324.17694091796875 0Q438.60491943359375 0 522.8868103027344 42.7572021484375Q607.168701171875 85.514404296875 653.1007995605469 164.014404296875Q699.0328979492188 242.514404296875 699.0328979492188 350Q699.0328979492188 458.10699462890625 653.1007995605469 536.2962951660156Q607.168701171875 614.485595703125 522.8868103027344 657.2427978515625Q438.60491943359375 700 324.17694091796875 700H186.03289794921875V549.7531127929688H317.96295166015625Q358.32098388671875 549.7531127929688 395.514404296875 539.6419982910156Q432.70782470703125 529.5308837890625 461.49383544921875 506.5267639160156Q490.27984619140625 483.52264404296875 507.1049499511719 445.08642578125Q523.9300537109375 406.65020751953125 523.9300537109375 350Q523.9300537109375 293.34979248046875 507.1049499511719 254.91357421875Q490.27984619140625 216.47735595703125 461.49383544921875 193.47323608398438Q432.70782470703125 170.4691162109375 395.514404296875 160.35800170898438Q358.32098388671875 150.24688720703125 317.96295166015625 150.24688720703125H186.03289794921875V0Z" fill="#000000" stroke="none" transform="translate(97.25085231236048,100.0) scale(0.007142857142857143,-0.007142857142857143) translate(-73.7860107421875,0)" /><path d="M176.24688720703125 143.86419677734375Q176.24688720703125 160.7860107421875 183.8970947265625 172.26132202148438Q191.54730224609375 183.73663330078125 207.9691162109375 190.00823974609375Q224.39093017578125 196.27984619140625 250.96295166015625 196.27984619140625Q285.50616455078125 196.27984619140625 317.2242736816406 186.71194458007812Q348.9423828125 177.14404296875 372.7572021484375 158.73663330078125V225.62139892578125Q360.7860107421875 238.97119140625 336.7469177246094 250.985595703125Q312.70782470703125 263 279.20782470703125 271.0823059082031Q245.70782470703125 279.16461181640625 204.40740966796875 279.16461181640625Q117.543212890625 279.16461181640625 70.66461181640625 240.52880859375Q23.7860107421875 201.89300537109375 23.7860107421875 135.514404296875Q23.7860107421875 88.514404296875 46.40740966796875 55.825103759765625Q69.02880859375 23.13580322265625 106.46090698242188 6.567901611328125Q143.89300537109375 -10 187.7572021484375 -10Q231.97119140625 -10 270.1604919433594 5.553497314453125Q308.34979248046875 21.10699462890625 332.0534973144531 51.660491943359375Q355.7572021484375 82.2139892578125 355.7572021484375 126.2139892578125L339.7572021484375 186.2139892578125Q339.7572021484375 153.9423828125 325.985595703125 132.03497314453125Q312.2139892578125 110.1275634765625 290.1707763671875 99.16665649414062Q268.1275634765625 88.20574951171875 242.312744140625 88.20574951171875Q223.87652587890625 88.20574951171875 208.83331298828125 94.5987548828125Q193.79010009765625 100.99176025390625 185.01849365234375 113.46707153320312Q176.24688720703125 125.9423828125 176.24688720703125 143.86419677734375ZM108.9423828125 319.20166015625Q118.6995849609375 325.33746337890625 140.80657958984375 334.7839660644531Q162.91357421875 344.23046875 192.58847045898438 351.2983703613281Q222.26336669921875 358.36627197265625 252.53497314453125 358.36627197265625Q273.53497314453125 358.36627197265625 290.04937744140625 354.0555725097656Q306.56378173828125 349.744873046875 317.6460876464844 341.0555725097656Q328.7283935546875 332.36627197265625 334.2427978515625 319.6625671386719Q339.7572021484375 306.9588623046875 339.7572021484375 289.79425048828125V0H485.00408935546875V323.7860107421875Q485.00408935546875 371.89300537109375 457.2221984863281 405.0679016113281Q429.4403076171875 438.2427978515625 381.1728210449219 455.6748962402344Q332.90533447265625 473.10699462890625 272.0699462890625 473.10699462890625Q206.8271484375 473.10699462890625 152.00616455078125 455.97119140625Q97.1851806640625 438.83538818359375 57.514404296875 419.83538818359375Z" fill="#000000" stroke="none" transform="translate(101.96690150669642,100.0) scale(0.007142857142857143,-0.007142857142857143) translate(-23.7860107421875,0)" /><path d="M407.572021484375 780V0H559.0328979492188V780ZM31.89300537109375 230Q31.89300537109375 152.89300537109375 63.203704833984375 99.20370483398438Q94.514404296875 45.514404296875 144.65020751953125 17.7572021484375Q194.7860107421875 -10 250.572021484375 -10Q308.572021484375 -10 353.1255187988281 19.0Q397.67901611328125 48 423.7325134277344 102.0Q449.7860107421875 156 449.7860107421875 230Q449.7860107421875 305 423.7325134277344 358.5Q397.67901611328125 412 353.1255187988281 441.0Q308.572021484375 470 250.572021484375 470Q194.7860107421875 470 144.65020751953125 442.2427978515625Q94.514404296875 414.485595703125 63.203704833984375 361.2962951660156Q31.89300537109375 308.10699462890625 31.89300537109375 230ZM190.56787109375 230Q190.56787109375 266.22222900390625 205.54318237304688 292.658447265625Q220.51849365234375 319.09466552734375 245.9547119140625 333.744873046875Q271.39093017578125 348.39508056640625 300.96295166015625 348.39508056640625Q326.6419677734375 348.39508056640625 351.32098388671875 334.36627197265625Q376 320.33746337890625 391.7860107421875 293.9012451171875Q407.572021484375 267.46502685546875 407.572021484375 230Q407.572021484375 192.53497314453125 391.7860107421875 166.0987548828125Q376 139.66253662109375 351.32098388671875 125.63372802734375Q326.6419677734375 111.60491943359375 300.96295166015625 111.60491943359375Q271.39093017578125 111.60491943359375 245.9547119140625 126.255126953125Q220.51849365234375 140.90533447265625 205.54318237304688 167.65225219726562Q190.56787109375 194.399169921875 190.56787109375 230Z" fill="#000000" stroke="none" transform="translate(105.51131635393413,100.0) scale(0.007142857142857143,-0.007142857142857143) translate(-31.89300537109375,0)" /><path d="M20 0H613.423828125V154.56787109375H332.9505615234375L495.67486572265625 300.7860107421875Q541.024658203125 339.67901611328125 568.8888549804688 387.3971252441406Q596.7530517578125 435.115234375 596.7530517578125 491.600830078125Q596.7530517578125 531.6790161132812 579.7139587402344 571.02880859375Q562.6748657226562 610.3786010742188 529.1501770019531 642.7427978515625Q495.62548828125 675.1069946289062 445.8580017089844 694.6069946289062Q396.09051513671875 714.1069946289062 331.255126953125 714.1069946289062Q240.6131591796875 714.1069946289062 178.54937744140625 677.014404296875Q116.485595703125 639.9218139648438 85.13580322265625 578.1399230957031Q53.7860107421875 516.3580322265625 53.7860107421875 441.3580322265625H219.56787109375Q219.56787109375 478.82305908203125 232.52877807617188 507.6913757324219Q245.48968505859375 536.5596923828125 269.6007995605469 552.7098999023438Q293.7119140625 568.860107421875 326.283935546875 568.860107421875Q350.20574951171875 568.860107421875 368.0596618652344 561.2778015136719Q385.91357421875 553.6954956054688 398.1316833496094 541.2880859375Q410.34979248046875 528.8806762695312 416.2427978515625 513.0946655273438Q422.13580322265625 497.30865478515625 422.13580322265625 480.52264404296875Q422.13580322265625 453.14404296875 411.4609069824219 428.5761413574219Q400.7860107421875 404.00823974609375 380.5576171875 378.8868408203125Q360.3292236328125 353.76544189453125 332.3580322265625 323.1728515625Z" fill="#000000" stroke="none" transform="translate(87.28130558558873,108.0) scale(0.007142857142857143,-0.007142857142857143) translate(-20,0)" /><path d="M202.67486572265625 350Q202.67486572265625 399.19342041015625 211.87857055664062 439.50823974609375Q221.082275390625 479.82305908203125 238.17898559570312 508.62347412109375Q255.27569580078125 537.4238891601562 278.7654113769531 552.6419982910156Q302.255126953125 567.860107421875 331.0699462890625 567.860107421875Q360.26336669921875 567.860107421875 383.56378173828125 552.6419982910156Q406.86419677734375 537.4238891601562 423.9609069824219 508.62347412109375Q441.0576171875 479.82305908203125 450.2613220214844 439.50823974609375Q459.46502685546875 399.19342041015625 459.46502685546875 350Q459.46502685546875 300.80657958984375 450.2613220214844 260.49176025390625Q441.0576171875 220.17694091796875 423.9609069824219 191.37652587890625Q406.86419677734375 162.57611083984375 383.56378173828125 147.35800170898438Q360.26336669921875 132.139892578125 331.0699462890625 132.139892578125Q302.255126953125 132.139892578125 278.7654113769531 147.35800170898438Q255.27569580078125 162.57611083984375 238.17898559570312 191.37652587890625Q221.082275390625 220.17694091796875 211.87857055664062 260.49176025390625Q202.67486572265625 300.80657958984375 202.67486572265625 350ZM40 350Q40 235.67901611328125 76.7283935546875 154.67901611328125Q113.456787109375 73.67901611328125 179.10287475585938 30.2860107421875Q244.74896240234375 -13.10699462890625 331.0699462890625 -13.10699462890625Q420.4979248046875 -13.10699462890625 485.83331298828125 30.2860107421875Q551.168701171875 73.67901611328125 586.654296875 154.67901611328125Q622.139892578125 235.67901611328125 622.139892578125 350Q622.139892578125 464.32098388671875 586.654296875 545.3209838867188Q551.168701171875 626.3209838867188 485.83331298828125 669.7139892578125Q420.4979248046875 713.1069946289062 331.0699462890625 713.1069946289062Q244.74896240234375 713.1069946289062 179.10287475585938 669.7139892578125Q113.456787109375 626.3209838867188 76.7283935546875 545.3209838867188Q40 464.32098388671875 40 350Z" fill="#000000" stroke="none" transform="translate(91.77004721505301,108.0) scale(0.007142857142857143,-0.007142857142857143) translate(-40,0)" /><path d="M274.74896240234375 338.7860107421875Q358.283935546875 338.7860107421875 425.1296081542969 358.7469177246094Q491.97528076171875 378.70782470703125 531.5390625 418.7757263183594Q571.1028442382812 458.8436279296875 571.1028442382812 519.02880859375Q571.1028442382812 573.3786010742188 542.3209533691406 617.2427978515625Q513.5390625 661.1069946289062 458.5431823730469 687.1069946289062Q403.54730224609375 713.1069946289062 324.90533447265625 713.1069946289062Q250.50616455078125 713.1069946289062 194.82098388671875 684.3251037597656Q139.13580322265625 655.543212890625 108.35391235351562 606.4650268554688Q77.572021484375 557.3868408203125 77.572021484375 494.9300537109375H233.139892578125Q233.139892578125 531.6090698242188 259.06170654296875 554.9629821777344Q284.9835205078125 578.31689453125 324.66253662109375 578.31689453125Q351.5843505859375 578.31689453125 368.870361328125 569.5987854003906Q386.1563720703125 560.8806762695312 395.04937744140625 545.0123596191406Q403.9423828125 529.14404296875 403.9423828125 508.572021484375Q403.9423828125 489.7860107421875 394.7530822753906 472.7572021484375Q385.56378173828125 455.7283935546875 368.4958801269531 442.6460876464844Q351.427978515625 429.56378173828125 327.6028747558594 422.2386779785156Q303.77777099609375 414.91357421875 274.74896240234375 414.91357421875ZM317.17694091796875 -16.2139892578125Q403.168701171875 -16.2139892578125 464.2859802246094 10.2716064453125Q525.4032592773438 36.7572021484375 558.2530517578125 83.55349731445312Q591.1028442382812 130.34979248046875 591.1028442382812 191.2139892578125Q591.1028442382812 244.456787109375 567.8744506835938 282.3888854980469Q544.6460571289062 320.32098388671875 502.06787109375 344.7530822753906Q459.48968505859375 369.1851806640625 401.9403076171875 380.4958801269531Q344.39093017578125 391.80657958984375 274.74896240234375 391.80657958984375V306.3580322265625Q313.0987548828125 306.3580322265625 341.1666564941406 299.2901306152344Q369.23455810546875 292.22222900390625 387.50616455078125 278.8292236328125Q405.77777099609375 265.43621826171875 414.8600769042969 247.15020751953125Q423.9423828125 228.86419677734375 423.9423828125 207.427978515625Q423.9423828125 177.50616455078125 411.04937744140625 157.89505004882812Q398.1563720703125 138.283935546875 375.49176025390625 128.9979248046875Q352.8271484375 119.7119140625 323.39093017578125 119.7119140625Q294.57611083984375 119.7119140625 269.4794006347656 130.9835205078125Q244.3826904296875 142.255126953125 229.3682861328125 165.14813232421875Q214.3538818359375 188.0411376953125 214.3538818359375 222.283935546875H47.572021484375Q47.572021484375 175.69134521484375 66.0576171875 132.73455810546875Q84.543212890625 89.77777099609375 119.13580322265625 56.131683349609375Q153.7283935546875 22.485595703125 203.73867797851562 3.13580322265625Q253.74896240234375 -16.2139892578125 317.17694091796875 -16.2139892578125Z" fill="#000000" stroke="none" transform="translate(96.17818930489676,108.0) scale(0.007142857142857143,-0.007142857142857143) translate(-47.572021484375,0)" /><path d="M202.67486572265625 350Q202.67486572265625 399.19342041015625 211.87857055664062 439.50823974609375Q221.082275390625 479.82305908203125 238.17898559570312 508.62347412109375Q255.27569580078125 537.4238891601562 278.7654113769531 552.6419982910156Q302.255126953125 567.860107421875 331.0699462890625 567.860107421875Q360.26336669921875 567.860107421875 383.56378173828125 552.6419982910156Q406.86419677734375 537.4238891601562 423.9609069824219 508.62347412109375Q441.0576171875 479.82305908203125 450.2613220214844 439.50823974609375Q459.46502685546875 399.19342041015625 459.46502685546875 350Q459.46502685546875 300.80657958984375 450.2613220214844 260.49176025390625Q441.0576171875 220.17694091796875 423.9609069824219 191.37652587890625Q406.86419677734375 162.57611083984375 383.56378173828125 147.35800170898438Q360.26336669921875 132.139892578125 331.0699462890625 132.139892578125Q302.255126953125 132.139892578125 278.7654113769531 147.35800170898438Q255.27569580078125 162.57611083984375 238.17898559570312 191.37652587890625Q221.082275390625 220.17694091796875 211.87857055664062 260.49176025390625Q202.67486572265625 300.80657958984375 202.67486572265625 350ZM40 350Q40 235.67901611328125 76.7283935546875 154.67901611328125Q113.456787109375 73.67901611328125 179.10287475585938 30.2860107421875Q244.74896240234375 -13.10699462890625 331.0699462890625 -13.10699462890625Q420.4979248046875 -13.10699462890625 485.83331298828125 30.2860107421875Q551.168701171875 73.67901611328125 586.654296875 154.67901611328125Q622.139892578125 235.67901611328125 622.139892578125 350Q622.139892578125 464.32098388671875 586.654296875 545.3209838867188Q551.168701171875 626.3209838867188 485.83331298828125 669.7139892578125Q420.4979248046875 713.1069946289062 331.0699462890625 713.1069946289062Q244.74896240234375 713.1069946289062 179.10287475585938 669.7139892578125Q113.456787109375 626.3209838867188 76.7283935546875 545.3209838867188Q40 464.32098388671875 40 350Z" fill="#000000" stroke="none" transform="translate(100.31055232456752,108.0) scale(0.007142857142857143,-0.007142857142857143) translate(-40,0)" /></svg>