<svg baseProfile="full" height="192.0mm" version="1.1" viewBox="0 0 192.0 192.0" width="192.0mm" xmlns="http://www.w3.org/2000/svg" xmlns:ev="http://www.w3.org/2001/xml-events" xmlns:xlink="http://www.w3.org/1999/xlink"><defs /><rect fill="none" height="192.0" stroke="#0000FF" stroke-width="0.01" width="192.0" x="0" y="0" /><circle cx="4.0" cy="4.0" fill="none" r="1.65" stroke="#0000FF" stroke-width="0.01" /><circle cx="188.0" cy="4.0" fill="none" r="1.65" stroke="#0000FF" stroke-width="0.01" /><circle cx="4.0" cy="188.0" fill="none" r="1.65" stroke="#0000FF" stroke-width="0.01" /><circle cx="188.0" cy="188.0" fill="none" r="1.65" stroke="#0000FF" stroke-width="0.01" /><circle cx="16.400000000000006" cy="36.6" fill="none" r="3.25" stroke="#0000FF" stroke-width="0.01" /><circle cx="16.400000000000006" cy="46.6" fill="none" r="3.25" stroke="#0000FF" stroke-width="0.01" /><circle cx="16.400000000000006" cy="26.6" fill="none" r="3.25" stroke="#0000FF" stroke-width="0.01" /><circle cx="112.0" cy="20.0" fill="none" r="3.0" stroke="#0000FF" stroke-width="0.01" /><circle cx="47.0" cy="142.0" fill="none" r="1.0" stroke="#0000FF" stroke-width="0.01" /><circle cx="51.0" cy="142.0" fill="none" r="1.0" stroke="#0000FF" stroke-width="0.01" /><circle cx="55.0" cy="142.0" fill="none" r="1.0" stroke="#0000FF" stroke-width="0.01" /><circle cx="59.0" cy="142.0" fill="none" r="1.0" stroke="#0000FF" stroke-width="0.01" /><circle cx="63.0" cy="142.0" fill="none" r="1.0" stroke="#0000FF" stroke-width="0.01" /><circle cx="47.0" cy="146.0" fill="none" r="1.0" stroke="#0000FF" stroke-width="0.01" /><circle cx="51.0" cy="146.0" fill="none" r="1.0" stroke="#0000FF" stroke-width="0.01" /><circle cx="55.0" cy="146.0" fill="none" r="1.0" stroke="#0000FF" stroke-width="0.01" /><circle cx="59.0" cy="146.0" fill="none" r="1.0" stroke="#0000FF" stroke-width="0.01" /><circle cx="63.0" cy="146.0" fill="none" r="1.0" stroke="#0000FF" stroke-width="0.01" /><circle cx="47.0" cy="150.0" fill="none" r="1.0" stroke="#0000FF" stroke-width="0.01" /><circle cx="51.0" cy="150.0" fill="none" r="1.0" stroke="#0000FF" stroke-width="0.01" /><circle cx="55.0" cy="150.0" fill="none" r="1.0" stroke="#0000FF" stroke-width="0.01" /><circle cx="59.0" cy="150.0" fill="none" r="1.0" stroke="#0000FF" stroke-width="0.01" /><circle cx="63.0" cy="150.0" fill="none" r="1.0" stroke="#0000FF" stroke-width="0.01" /><circle cx="47.0" cy="154.0" fill="none" r="1.0" stroke="#0000FF" stroke-width="0.01" /><circle cx="51.0" cy="154.0" fill="none" r="1.0" stroke="#0000FF" stroke-width="0.01" /><circle cx="55.0" cy="154.0" fill="none" r="1.0" stroke="#0000FF" stroke-width="0.01" /><circle cx="59.0" cy="154.0" fill="none" r="1.0" stroke="#0000FF" stroke-width="0.01" /><circle cx="63.0" cy="154.0" fill="none" r="1.0" stroke="#0000FF" stroke-width="0.01" /><circle cx="47.0" cy="158.0" fill="none" r="1.0" stroke="#0000FF" stroke-width="0.01" /><circle cx="51.0" cy="158.0" fill="none" r="1.0" stroke="#0000FF" stroke-width="0.01" /><circle cx="55.0" cy="158.0" fill="none" r="1.0" stroke="#0000FF" stroke-width="0.01" /><circle cx="59.0" cy="158.0" fill="none" r="1.0" stroke="#0000FF" stroke-width="0.01" /><circle cx="63.0" cy="158.0" fill="none" r="1.0" stroke="#0000FF" stroke-width="0.01" /><path d="M186.03289794921875 554.7531127929688H499.03289794921875V700H186.03289794921875ZM186.03289794921875 280.96710205078125H489.03289794921875V416.89300537109375H186.03289794921875ZM73.7860107421875 700V0H236.46087646484375V700Z" fill="#000000" stroke="none" transform="translate(80.40507136753627,96.0) scale(0.007142857142857143,-0.007142857142857143) translate(-73.7860107421875,0)" /><path d="M31.89300537109375 230Q31.89300537109375 157.89300537109375 66.18930053710938 103.70370483398438Q100.485595703125 49.514404296875 160.07818603515625 19.7572021484375Q219.6707763671875 -10 294.74896240234375 -10Q370.20574951171875 -10 429.6090393066406 19.7572021484375Q489.0123291015625 49.514404296875 523.3086242675781 103.70370483398438Q557.6049194335938 157.89300537109375 557.6049194335938 230Q557.6049194335938 303.10699462890625 523.3086242675781 357.10699462890625Q489.0123291015625 411.10699462890625 429.6090393066406 440.86419677734375Q370.20574951171875 470.62139892578125 294.74896240234375 470.62139892578125Q219.6707763671875 470.62139892578125 160.07818603515625 440.86419677734375Q100.485595703125 411.10699462890625 66.18930053710938 357.10699462890625Q31.89300537109375 303.10699462890625 31.89300537109375 230ZM187.46087646484375 230Q187.46087646484375 265.572021484375 202.05758666992188 291.5761413574219Q216.654296875 317.58026123046875 240.9691162109375 331.744873046875Q265.283935546875 345.90948486328125 294.74896240234375 345.90948486328125Q324.2139892578125 345.90948486328125 348.52880859375 331.744873046875Q372.8436279296875 317.58026123046875 387.4403381347656 291.5761413574219Q402.03704833984375 265.572021484375 402.03704833984375 230Q402.03704833984375 194.427978515625 387.4403381347656 168.6131591796875Q372.8436279296875 142.79833984375 348.52880859375 128.755126953125Q324.2139892578125 114.7119140625 294.74896240234375 114.7119140625Q265.283935546875 114.7119140625 240.9691162109375 128.755126953125Q216.654296875 142.79833984375 202.05758666992188 168.6131591796875Q187.46087646484375 194.427978515625 187.46087646484375 230Z" fill="#000000" stroke="none" transform="translate(83.69254913330077,96.0) scale(0.007142857142857143,-0.007142857142857143) translate(-31.89300537109375,0)" /><path d="M207.81890869140625 460H59.46502685546875V0H207.81890869140625ZM340.60491943359375 303.6461181640625 406.3538818359375 433.02880859375Q393.94647216796875 450.7860107421875 371.20367431640625 461.014404296875Q348.46087646484375 471.2427978515625 323.46087646484375 471.2427978515625Q285.24688720703125 471.2427978515625 250.20779418945312 445.9320983886719Q215.168701171875 420.62139892578125 193.49380493164062 377.8106994628906Q171.81890869140625 335 171.81890869140625 280L207.81890869140625 227.18109130859375Q207.81890869140625 260.18109130859375 216.80450439453125 283.0740966796875Q225.79010009765625 305.96710205078125 242.79010009765625 317.860107421875Q259.79010009765625 329.75311279296875 281.7119140625 329.75311279296875Q301.7119140625 329.75311279296875 315.33331298828125 322.6996154785156Q328.9547119140625 315.6461181640625 340.60491943359375 303.6461181640625Z" fill="#000000" stroke="none" transform="translate(87.6976342337472,96.0) scale(0.007142857142857143,-0.007142857142857143) translate(-59.46502685546875,0)" /><path d="M186.03289794921875 0H539.0328979492188V139.03289794921875H186.03289794921875ZM186.03289794921875 560.9671020507812H539.0328979492188V700H186.03289794921875ZM186.03289794921875 299.60906982421875H519.0328979492188V435.53497314453125H186.03289794921875ZM73.7860107421875 700V0H236.46087646484375V700Z" fill="#000000" stroke="none" transform="translate(91.92541176932197,96.0) scale(0.007142857142857143,-0.007142857142857143) translate(-73.7860107421875,0)" /><path d="M760.9259033203125 296.2139892578125Q760.9259033203125 351.97119140625 746.8435974121094 390.9176940917969Q732.7612915039062 429.86419677734375 701.3147888183594 450.2427978515625Q669.8682861328125 470.62139892578125 616.0328979492188 470.62139892578125Q569.4114990234375 470.62139892578125 532.168701171875 450.6748962402344Q494.9259033203125 430.7283935546875 469.68310546875 394.56378173828125Q455.54730224609375 431.83538818359375 423.53289794921875 451.2283935546875Q391.51849365234375 470.62139892578125 337.9259033203125 470.62139892578125Q290.57611083984375 470.62139892578125 257.5226135253906 449.7572021484375Q224.4691162109375 428.89300537109375 204.7119140625 391.7572021484375V460H59.46502685546875V0H204.7119140625V280Q204.7119140625 307.92181396484375 213.36212158203125 326.7757263183594Q222.0123291015625 345.629638671875 237.312744140625 355.0905456542969Q252.6131591796875 364.55145263671875 272.56378173828125 364.55145263671875Q303.89300537109375 364.55145263671875 317.6255187988281 343.0761413574219Q331.3580322265625 321.600830078125 331.3580322265625 280V0H482.81890869140625V280Q482.81890869140625 307.92181396484375 491.4691162109375 326.7757263183594Q500.11932373046875 345.629638671875 515.4197387695312 355.0905456542969Q530.7201538085938 364.55145263671875 550.6707763671875 364.55145263671875Q582 364.55145263671875 595.7325134277344 343.0761413574219Q609.4650268554688 321.600830078125 609.4650268554688 280V0H760.9259033203125Z" fill="#000000" stroke="none" transform="translate(95.49860382080077,96.0) scale(0.007142857142857143,-0.007142857142857143) translate(-59.46502685546875,0)" /><path d="M31.89300537109375 230Q31.89300537109375 157.89300537109375 66.18930053710938 103.70370483398438Q100.485595703125 49.514404296875 160.07818603515625 19.7572021484375Q219.6707763671875 -10 294.74896240234375 -10Q370.20574951171875 -10 429.6090393066406 19.7572021484375Q489.0123291015625 49.514404296875 523.3086242675781 103.70370483398438Q557.6049194335938 157.89300537109375 557.6049194335938 230Q557.6049194335938 303.10699462890625 523.3086242675781 357.10699462890625Q489.0123291015625 411.10699462890625 429.6090393066406 440.86419677734375Q370.20574951171875 470.62139892578125 294.74896240234375 470.62139892578125Q219.6707763671875 470.62139892578125 160.07818603515625 440.86419677734375Q100.485595703125 411.10699462890625 66.18930053710938 357.10699462890625Q31.89300537109375 303.10699462890625 31.89300537109375 230ZM187.46087646484375 230Q187.46087646484375 265.572021484375 202.05758666992188 291.5761413574219Q216.654296875 317.58026123046875 240.9691162109375 331.744873046875Q265.283935546875 345.90948486328125 294.74896240234375 345.90948486328125Q324.2139892578125 345.90948486328125 348.52880859375 331.744873046875Q372.8436279296875 317.58026123046875 387.4403381347656 291.5761413574219Q402.03704833984375 265.572021484375 402.03704833984375 230Q402.03704833984375 194.427978515625 387.4403381347656 168.6131591796875Q372.8436279296875 142.79833984375 348.52880859375 128.755126953125Q324.2139892578125 114.7119140625 294.74896240234375 114.7119140625Q265.283935546875 114.7119140625 240.9691162109375 128.755126953125Q216.654296875 142.79833984375 202.05758666992188 168.6131591796875Q187.46087646484375 194.427978515625 187.46087646484375 230Z" fill="#000000" stroke="none" transform="translate(100.75903865269251,96.0) scale(0.007142857142857143,-0.007142857142857143) translate(-31.89300537109375,0)" /><path d="M207.81890869140625 460H59.46502685546875V0H207.81890869140625ZM340.60491943359375 303.6461181640625 406.3538818359375 433.02880859375Q393.94647216796875 450.7860107421875 371.20367431640625 461.014404296875Q348.46087646484375 471.2427978515625 323.46087646484375 471.2427978515625Q285.24688720703125 471.2427978515625 250.20779418945312 445.9320983886719Q215.168701171875 420.62139892578125 193.49380493164062 377.8106994628906Q171.81890869140625 335 171.81890869140625 280L207.81890869140625 227.18109130859375Q207.81890869140625 260.18109130859375 216.80450439453125 283.0740966796875Q225.79010009765625 305.96710205078125 242.79010009765625 317.860107421875Q259.79010009765625 329.75311279296875 281.7119140625 329.75311279296875Q301.7119140625 329.75311279296875 315.33331298828125 322.6996154785156Q328.9547119140625 315.6461181640625 340.60491943359375 303.6461181640625Z" fill="#000000" stroke="none" transform="translate(104.76412375313893,96.0) scale(0.007142857142857143,-0.007142857142857143) translate(-59.46502685546875,0)" /><path d="M530.1028442382812 460H374.85595703125L227.884765625 92.19342041015625L305.62548828125 90.67901611328125L157.139892578125 460H-9.32098388671875L189.6707763671875 37.03704833984375L77.96295166015625 -220H230.10284423828125Z" fill="#000000" stroke="none" transform="translate(107.4919012887137,96.0) scale(0.007142857142857143,-0.007142857142857143) translate(9.32098388671875,0)" /><path d="M59.46502685546875 780V0H210.9259033203125V780Z" fill="#000000" stroke="none" transform="translate(82.47339869907924,104.0) scale(0.007142857142857143,-0.007142857142857143) translate(-59.46502685546875,0)" /><path d="M31.89300537109375 230Q31.89300537109375 157.89300537109375 66.18930053710938 103.70370483398438Q100.485595703125 49.514404296875 160.07818603515625 19.7572021484375Q219.6707763671875 -10 294.74896240234375 -10Q370.20574951171875 -10 429.6090393066406 19.7572021484375Q489.0123291015625 49.514404296875 523.3086242675781 103.70370483398438Q557.6049194335938 157.89300537109375 557.6049194335938 230Q557.6049194335938 303.10699462890625 523.3086242675781 357.10699462890625Q489.0123291015625 411.10699462890625 429.6090393066406 440.86419677734375Q370.20574951171875 470.62139892578125 294.74896240234375 470.62139892578125Q219.6707763671875 470.62139892578125 160.07818603515625 440.86419677734375Q100.485595703125 411.10699462890625 66.18930053710938 357.10699462890625Q31.89300537109375 303.10699462890625 31.89300537109375 230ZM187.46087646484375 230Q187.46087646484375 265.572021484375 202.05758666992188 291.5761413574219Q216.654296875 317.58026123046875 240.9691162109375 331.744873046875Q265.283935546875 345.90948486328125 294.74896240234375 345.90948486328125Q324.2139892578125 345.90948486328125 348.52880859375 331.744873046875Q372.8436279296875 317.58026123046875 387.4403381347656 291.5761413574219Q402.03704833984375 265.572021484375 402.03704833984375 230Q402.03704833984375 194.427978515625 387.4403381347656 168.6131591796875Q372.8436279296875 142.79833984375 348.52880859375 128.755126953125Q324.2139892578125 114.7119140625 294.74896240234375 114.7119140625Q265.283935546875 114.7119140625 240.9691162109375 128.755126953125Q216.654296875 142.79833984375 202.05758666992188 168.6131591796875Q187.46087646484375 194.427978515625 187.46087646484375 230Z" fill="#000000" stroke="none" transform="translate(83.80526210239955,104.0) scale(0.007142857142857143,-0.007142857142857143) translate(-31.89300537109375,0)" /><path d="M-3.10699462890625 460 263.4979248046875 -53.6419677734375 530.1028442382812 460H368.6419677734375L263.4979248046875 204.5966796875L158.3538818359375 460Z" fill="#000000" stroke="none" transform="translate(87.81034720284597,104.0) scale(0.007142857142857143,-0.007142857142857143) translate(3.10699462890625,0)" /><path d="M293.39093017578125 -10Q381.06170654296875 -10 442.3970947265625 23.84979248046875Q503.73248291015625 57.6995849609375 540.3538818359375 125.6419677734375L405.13580322265625 158.56378173828125Q388.2139892578125 128.99176025390625 359.6707763671875 114.0843505859375Q331.1275634765625 99.17694091796875 290.96295166015625 99.17694091796875Q256.39093017578125 99.17694091796875 232.40121459960938 114.8271484375Q208.4114990234375 130.47735595703125 196.07199096679688 160.08847045898438Q183.73248291015625 189.6995849609375 184.3538818359375 231.89300537109375Q184.73248291015625 278.0576171875 196.32919311523438 308.3436279296875Q207.9259033203125 338.629638671875 230.79421997070312 353.77984619140625Q253.66253662109375 368.9300537109375 287.85595703125 368.9300537109375Q315.04937744140625 368.9300537109375 335.0390930175781 356.9012451171875Q355.02880859375 344.8724365234375 366.2469177246094 322.95062255859375Q377.46502685546875 301.02880859375 377.46502685546875 270.59259033203125Q377.46502685546875 263.59259033203125 373.8436279296875 253.40328979492188Q370.22222900390625 243.2139892578125 365.3580322265625 235.7283935546875L401.08642578125 281.7283935546875H117.0699462890625V197.572021484375H537.4114990234375Q538.654296875 205.16461181640625 538.8435974121094 215.7716064453125Q539.0328979492188 226.37860107421875 539.0328979492188 237.10699462890625Q539.0328979492188 311.34979248046875 510.2366027832031 363.4176940917969Q481.4403076171875 415.485595703125 426.10491943359375 442.7427978515625Q370.76953125 470 290.96295166015625 470Q210.53497314453125 470 152.51028442382812 440.9320983886719Q94.485595703125 411.86419677734375 63.189300537109375 358.1748962402344Q31.89300537109375 304.485595703125 31.89300537109375 230Q31.89300537109375 156.514404296875 63.7427978515625 102.82510375976562Q95.59259033203125 49.13580322265625 154.41357421875 19.567901611328125Q213.23455810546875 -10 293.39093017578125 -10Z" fill="#000000" stroke="none" transform="translate(91.86898890904017,104.0) scale(0.007142857142857143,-0.007142857142857143) translate(-31.89300537109375,0)" /><path d="M73.7860107421875 700V0H248.2674560546875V700ZM324.17694091796875 0Q438.60491943359375 0 522.8868103027344 42.7572021484375Q607.168701171875 85.514404296875 653.1007995605469 164.014404296875Q699.0328979492188 242.514404296875 699.0328979492188 350Q699.0328979492188 458.10699462890625 653.1007995605469 536.2962951660156Q607.168701171875 614.485595703125 522.8868103027344 657.2427978515625Q438.60491943359375 700 324.17694091796875 700H186.03289794921875V549.7531127929688H317.96295166015625Q358.32098388671875 549.7531127929688 395.514404296875 539.6419982910156Q432.70782470703125 529.5308837890625 461.49383544921875 506.5267639160156Q490.27984619140625 483.52264404296875 507.1049499511719 445.08642578125Q523.9300537109375 406.65020751953125 523.9300537109375 350Q523.9300537109375 293.34979248046875 507.1049499511719 254.91357421875Q490.27984619140625 216.47735595703125 461.49383544921875 193.47323608398438Q432.70782470703125 170.4691162109375 395.514404296875 160.35800170898438Q358.32098388671875 150.24688720703125 317.96295166015625 150.24688720703125H186.03289794921875V0Z" fill="#000000" stroke="none" transform="translate(97.25085231236048,104.0) scale(0.007142857142857143,-0.007142857142857143) translate(-73.7860107421875,0)" /><path d="M176.24688720703125 143.86419677734375Q176.24688720703125 160.7860107421875 183.8970947265625 172.26132202148438Q191.54730224609375 183.73663330078125 207.9691162109375 190.00823974609375Q224.39093017578125 196.27984619140625 250.96295166015625 196.27984619140625Q285.50616455078125 196.27984619140625 317.2242736816406 186.71194458007812Q348.9423828125 177.14404296875 372.7572021484375 158.73663330078125V225.62139892578125Q360.7860107421875 238.97119140625 336.7469177246094 250.985595703125Q312.70782470703125 263 279.20782470703125 271.0823059082031Q245.70782470703125 279.16461181640625 204.40740966796875 279.16461181640625Q117.543212890625 279.16461181640625 70.66461181640625 240.52880859375Q23.7860107421875 201.89300537109375 23.7860107421875 135.514404296875Q23.7860107421875 88.514404296875 46.40740966796875 55.825103759765625Q69.02880859375 23.13580322265625 106.46090698242188 6.567901611328125Q143.89300537109375 -10 187.7572021484375 -10Q231.97119140625 -10 270.1604919433594 5.553497314453125Q308.34979248046875 21.10699462890625 332.0534973144531 51.660491943359375Q355.7572021484375 82.2139892578125 355.7572021484375 126.2139892578125L339.7572021484375 186.2139892578125Q339.7572021484375 153.9423828125 325.985595703125 132.03497314453125Q312.2139892578125 110.1275634765625 290.1707763671875 99.16665649414062Q268.1275634765625 88.20574951171875 242.312744140625 88.20574951171875Q223.87652587890625 88.20574951171875 208.83331298828125 94.5987548828125Q193.79010009765625 100.99176025390625 185.01849365234375 113.46707153320312Q176.24688720703125 125.9423828125 176.24688720703125 143.86419677734375ZM108.9423828125 319.20166015625Q118.6995849609375 325.33746337890625 140.80657958984375 334.7839660644531Q162.91357421875 344.23046875 192.58847045898438 351.2983703613281Q222.26336669921875 358.36627197265625 252.53497314453125 358.36627197265625Q273.53497314453125 358.36627197265625 290.04937744140625 354.0555725097656Q306.56378173828125 349.744873046875 317.6460876464844 341.0555725097656Q328.7283935546875 332.36627197265625 334.2427978515625 319.6625671386719Q339.7572021484375 306.9588623046875 339.7572021484375 289.79425048828125V0H485.00408935546875V323.7860107421875Q485.00408935546875 371.89300537109375 457.2221984863281 405.0679016113281Q429.4403076171875 438.2427978515625 381.1728210449219 455.6748962402344Q332.90533447265625 473.10699462890625 272.0699462890625 473.10699462890625Q206.8271484375 473.10699462890625 152.00616455078125 455.97119140625Q97.1851806640625 438.83538818359375 57.514404296875 419.83538818359375Z" fill="#000000" stroke="none" transform="translate(101.96690150669642,104.0) scale(0.007142857142857143,-0.007142857142857143) translate(-23.7860107421875,0)" /><path d="M407.572021484375 780V0H559.0328979492188V780ZM31.89300537109375 230Q31.89300537109375 152.89300537109375 63.203704833984375 99.20370483398438Q94.514404296875 45.514404296875 144.65020751953125 17.7572021484375Q194.7860107421875 -10 250.572021484375 -10Q308.572021484375 -10 353.1255187988281 19.0Q397.67901611328125 48 423.7325134277344 102.0Q449.7860107421875 156 449.7860107421875 230Q449.7860107421875 305 423.7325134277344 358.5Q397.67901611328125 412 353.1255187988281 441.0Q308.572021484375 470 250.572021484375 470Q194.7860107421875 470 144.65020751953125 442.2427978515625Q94.514404296875 414.485595703125 63.203704833984375 361.2962951660156Q31.89300537109375 308.10699462890625 31.89300537109375 230ZM190.56787109375 230Q190.56787109375 266.22222900390625 205.54318237304688 292.658447265625Q220.51849365234375 319.09466552734375 245.9547119140625 333.744873046875Q271.39093017578125 348.39508056640625 300.96295166015625 348.39508056640625Q326.6419677734375 348.39508056640625 351.32098388671875 334.36627197265625Q376 320.33746337890625 391.7860107421875 293.9012451171875Q407.572021484375 267.46502685546875 407.572021484375 230Q407.572021484375 192.53497314453125 391.7860107421875 166.0987548828125Q376 139.66253662109375 351.32098388671875 125.63372802734375Q326.6419677734375 111.60491943359375 300.96295166015625 111.60491943359375Q271.39093017578125 111.60491943359375 245.9547119140625 126.255126953125Q220.51849365234375 140.90533447265625 205.54318237304688 167.65225219726562Q190.56787109375 194.399169921875 190.56787109375 230Z" fill="#000000" stroke="none" transform="translate(105.51131635393413,104.0) scale(0.007142857142857143,-0.007142857142857143) translate(-31.89300537109375,0)" /><path d="M254.053466796875 356.79840087890625 445.39093017578125 65 636.7283935546875 356.79840087890625 678.7860107421875 0H856.995849609375L744.0328979492188 735L445.39093017578125 308.16046142578125L146.74896240234375 735L33.7860107421875 0H211.995849609375Z" fill="#000000" stroke="none" transform="translate(24.400000000000006,37.6) scale(0.004285714285714286,-0.004285714285714286) translate(-33.7860107421875,0)" /><path d="M50.14404296875 632.600830078125Q50.14404296875 596.9300537109375 75.96502685546875 573.9053649902344Q101.7860107421875 550.8806762695312 138.07818603515625 550.8806762695312Q174.74896240234375 550.8806762695312 200.38064575195312 573.9053649902344Q226.0123291015625 596.9300537109375 226.0123291015625 632.600830078125Q226.0123291015625 668.6502075195312 200.38064575195312 691.485595703125Q174.74896240234375 714.3209838867188 138.07818603515625 714.3209838867188Q101.7860107421875 714.3209838867188 75.96502685546875 691.485595703125Q50.14404296875 668.6502075195312 50.14404296875 632.600830078125ZM64.52264404296875 460V0H211.0123291015625V460Z" fill="#000000" stroke="none" transform="translate(28.078042166573667,37.6) scale(0.004285714285714286,-0.004285714285714286) translate(-50.14404296875,0)" /><path d="M357.572021484375 280V0H515.2468872070312V296.2139892578125Q515.2468872070312 378.59259033203125 476.1645812988281 424.60699462890625Q437.082275390625 470.62139892578125 351.03289794921875 470.62139892578125Q300.4403076171875 470.62139892578125 265.9403076171875 449.6893005371094Q231.4403076171875 428.7572021484375 210.9259033203125 391.10699462890625V460H59.46502685546875V0H210.9259033203125V280Q210.9259033203125 307.16461181640625 220.76541137695312 326.0185241699219Q230.60491943359375 344.8724365234375 248.71603393554688 354.7119445800781Q266.8271484375 364.55145263671875 290.6419677734375 364.55145263671875Q327.456787109375 364.55145263671875 342.514404296875 342.6975402832031Q357.572021484375 320.8436279296875 357.572021484375 280Z" fill="#000000" stroke="none" transform="translate(28.98176339285715,37.6) scale(0.004285714285714286,-0.004285714285714286) translate(-59.46502685546875,0)" /><path d="M184.283935546875 135.43212890625H554.283935546875L542.9259033203125 263.9012451171875H195.6419677734375ZM367.283935546875 442.576171875 466.1563720703125 215.88067626953125 459.86419677734375 172.888916015625 544.4650268554688 0H735.7818603515625L367.283935546875 744.3209838867188L-1.2139892578125 0H190.10284423828125L276.70367431640625 179.51031494140625L269.168701171875 217.39508056640625Z" fill="#000000" stroke="none" transform="translate(24.400000000000006,47.6) scale(0.004285714285714286,-0.004285714285714286) translate(1.2139892578125,0)" /><path d="M217.139892578125 180V460H59.46502685546875V163.7860107421875Q59.46502685546875 81.7860107421875 98.73663330078125 35.582305908203125Q138.00823974609375 -10.62139892578125 223.67901611328125 -10.62139892578125Q274.65020751953125 -10.62139892578125 308.9609069824219 10.5Q343.2716064453125 31.62139892578125 363.7860107421875 68.89300537109375V0H515.2468872070312V460H363.7860107421875V180Q363.7860107421875 152.83538818359375 353.9465026855469 133.98147583007812Q344.10699462890625 115.1275634765625 326.30657958984375 105.28805541992188Q308.50616455078125 95.44854736328125 284.0699462890625 95.44854736328125Q247.255126953125 95.44854736328125 232.197509765625 117.68106079101562Q217.139892578125 139.91357421875 217.139892578125 180Z" fill="#000000" stroke="none" transform="translate(27.70855364118304,47.6) scale(0.004285714285714286,-0.004285714285714286) translate(-59.46502685546875,0)" /><path d="M407.572021484375 780V0H559.0328979492188V780ZM31.89300537109375 230Q31.89300537109375 152.89300537109375 63.203704833984375 99.20370483398438Q94.514404296875 45.514404296875 144.65020751953125 17.7572021484375Q194.7860107421875 -10 250.572021484375 -10Q308.572021484375 -10 353.1255187988281 19.0Q397.67901611328125 48 423.7325134277344 102.0Q449.7860107421875 156 449.7860107421875 230Q449.7860107421875 305 423.7325134277344 358.5Q397.67901611328125 412 353.1255187988281 441.0Q308.572021484375 470 250.572021484375 470Q194.7860107421875 470 144.65020751953125 442.2427978515625Q94.514404296875 414.485595703125 63.203704833984375 361.2962951660156Q31.89300537109375 308.10699462890625 31.89300537109375 230ZM190.56787109375 230Q190.56787109375 266.22222900390625 205.54318237304688 292.658447265625Q220.51849365234375 319.09466552734375 245.9547119140625 333.744873046875Q271.39093017578125 348.39508056640625 300.96295166015625 348.39508056640625Q326.6419677734375 348.39508056640625 351.32098388671875 334.36627197265625Q376 320.33746337890625 391.7860107421875 293.9012451171875Q407.572021484375 267.46502685546875 407.572021484375 230Q407.572021484375 192.53497314453125 391.7860107421875 166.0987548828125Q376 139.66253662109375 351.32098388671875 125.63372802734375Q326.6419677734375 111.60491943359375 300.96295166015625 111.60491943359375Q271.39093017578125 111.60491943359375 245.9547119140625 126.255126953125Q220.51849365234375 140.90533447265625 205.54318237304688 167.65225219726562Q190.56787109375 194.399169921875 190.56787109375 230Z" fill="#000000" stroke="none" transform="translate(29.811904471261165,47.6) scale(0.004285714285714286,-0.004285714285714286) translate(-31.89300537109375,0)" /><path d="M50.14404296875 632.600830078125Q50.14404296875 596.9300537109375 75.96502685546875 573.9053649902344Q101.7860107421875 550.8806762695312 138.07818603515625 550.8806762695312Q174.74896240234375 550.8806762695312 200.38064575195312 573.9053649902344Q226.0123291015625 596.9300537109375 226.0123291015625 632.600830078125Q226.0123291015625 668.6502075195312 200.38064575195312 691.485595703125Q174.74896240234375 714.3209838867188 138.07818603515625 714.3209838867188Q101.7860107421875 714.3209838867188 75.96502685546875 691.485595703125Q50.14404296875 668.6502075195312 50.14404296875 632.600830078125ZM64.52264404296875 460V0H211.0123291015625V460Z" fill="#000000" stroke="none" transform="translate(32.22107543945313,47.6) scale(0.004285714285714286,-0.004285714285714286) translate(-50.14404296875,0)" /><path d="M31.89300537109375 230Q31.89300537109375 157.89300537109375 66.18930053710938 103.70370483398438Q100.485595703125 49.514404296875 160.07818603515625 19.7572021484375Q219.6707763671875 -10 294.74896240234375 -10Q370.20574951171875 -10 429.6090393066406 19.7572021484375Q489.0123291015625 49.514404296875 523.3086242675781 103.70370483398438Q557.6049194335938 157.89300537109375 557.6049194335938 230Q557.6049194335938 303.10699462890625 523.3086242675781 357.10699462890625Q489.0123291015625 411.10699462890625 429.6090393066406 440.86419677734375Q370.20574951171875 470.62139892578125 294.74896240234375 470.62139892578125Q219.6707763671875 470.62139892578125 160.07818603515625 440.86419677734375Q100.485595703125 411.10699462890625 66.18930053710938 357.10699462890625Q31.89300537109375 303.10699462890625 31.89300537109375 230ZM187.46087646484375 230Q187.46087646484375 265.572021484375 202.05758666992188 291.5761413574219Q216.654296875 317.58026123046875 240.9691162109375 331.744873046875Q265.283935546875 345.90948486328125 294.74896240234375 345.90948486328125Q324.2139892578125 345.90948486328125 348.52880859375 331.744873046875Q372.8436279296875 317.58026123046875 387.4403381347656 291.5761413574219Q402.03704833984375 265.572021484375 402.03704833984375 230Q402.03704833984375 194.427978515625 387.4403381347656 168.6131591796875Q372.8436279296875 142.79833984375 348.52880859375 128.755126953125Q324.2139892578125 114.7119140625 294.74896240234375 114.7119140625Q265.283935546875 114.7119140625 240.9691162109375 128.755126953125Q216.654296875 142.79833984375 202.05758666992188 168.6131591796875Q187.46087646484375 194.427978515625 187.46087646484375 230Z" fill="#000000" stroke="none" transform="translate(33.12479666573661,47.6) scale(0.004285714285714286,-0.004285714285714286) translate(-31.89300537109375,0)" /><path d="M120.7860107421875 293.39508056640625H650.4979248046875V444.85595703125H120.7860107421875ZM543.7860107421875 700V0H712.6748657226562V700ZM73.7860107421875 700V0H242.67486572265625V700Z" fill="#000000" stroke="none" transform="translate(24.400000000000006,27.6) scale(0.004285714285714286,-0.004285714285714286) translate(-73.7860107421875,0)" /><path d="M31.89300537109375 230Q31.89300537109375 157.89300537109375 66.18930053710938 103.70370483398438Q100.485595703125 49.514404296875 160.07818603515625 19.7572021484375Q219.6707763671875 -10 294.74896240234375 -10Q370.20574951171875 -10 429.6090393066406 19.7572021484375Q489.0123291015625 49.514404296875 523.3086242675781 103.70370483398438Q557.6049194335938 157.89300537109375 557.6049194335938 230Q557.6049194335938 303.10699462890625 523.3086242675781 357.10699462890625Q489.0123291015625 411.10699462890625 429.6090393066406 440.86419677734375Q370.20574951171875 470.62139892578125 294.74896240234375 470.62139892578125Q219.6707763671875 470.62139892578125 160.07818603515625 440.86419677734375Q100.485595703125 411.10699462890625 66.18930053710938 357.10699462890625Q31.89300537109375 303.10699462890625 31.89300537109375 230ZM187.46087646484375 230Q187.46087646484375 265.572021484375 202.05758666992188 291.5761413574219Q216.654296875 317.58026123046875 240.9691162109375 331.744873046875Q265.283935546875 345.90948486328125 294.74896240234375 345.90948486328125Q324.2139892578125 345.90948486328125 348.52880859375 331.744873046875Q372.8436279296875 317.58026123046875 387.4403381347656 291.5761413574219Q402.03704833984375 265.572021484375 402.03704833984375 230Q402.03704833984375 194.427978515625 387.4403381347656 168.6131591796875Q372.8436279296875 142.79833984375 348.52880859375 128.755126953125Q324.2139892578125 114.7119140625 294.74896240234375 114.7119140625Q265.283935546875 114.7119140625 240.9691162109375 128.755126953125Q216.654296875 142.79833984375 202.05758666992188 168.6131591796875Q187.46087646484375 194.427978515625 187.46087646484375 230Z" fill="#000000" stroke="none" transform="translate(27.288095092773442,27.6) scale(0.004285714285714286,-0.004285714285714286) translate(-31.89300537109375,0)" /><path d="M217.139892578125 180V460H59.46502685546875V163.7860107421875Q59.46502685546875 81.7860107421875 98.73663330078125 35.582305908203125Q138.00823974609375 -10.62139892578125 223.67901611328125 -10.62139892578125Q274.65020751953125 -10.62139892578125 308.9609069824219 10.5Q343.2716064453125 31.62139892578125 363.7860107421875 68.89300537109375V0H515.2468872070312V460H363.7860107421875V180Q363.7860107421875 152.83538818359375 353.9465026855469 133.98147583007812Q344.10699462890625 115.1275634765625 326.30657958984375 105.28805541992188Q308.50616455078125 95.44854736328125 284.0699462890625 95.44854736328125Q247.255126953125 95.44854736328125 232.197509765625 117.68106079101562Q217.139892578125 139.91357421875 217.139892578125 180Z" fill="#000000" stroke="none" transform="translate(29.6911461530413,27.6) scale(0.004285714285714286,-0.004285714285714286) translate(-59.46502685546875,0)" /><path d="M207.81890869140625 460H59.46502685546875V0H207.81890869140625ZM340.60491943359375 303.6461181640625 406.3538818359375 433.02880859375Q393.94647216796875 450.7860107421875 371.20367431640625 461.014404296875Q348.46087646484375 471.2427978515625 323.46087646484375 471.2427978515625Q285.24688720703125 471.2427978515625 250.20779418945312 445.9320983886719Q215.168701171875 420.62139892578125 193.49380493164062 377.8106994628906Q171.81890869140625 335 171.81890869140625 280L207.81890869140625 227.18109130859375Q207.81890869140625 260.18109130859375 216.80450439453125 283.0740966796875Q225.79010009765625 305.96710205078125 242.79010009765625 317.860107421875Q259.79010009765625 329.75311279296875 281.7119140625 329.75311279296875Q301.7119140625 329.75311279296875 315.33331298828125 322.6996154785156Q328.9547119140625 315.6461181640625 340.60491943359375 303.6461181640625Z" fill="#000000" stroke="none" transform="translate(31.794496983119423,27.6) scale(0.004285714285714286,-0.004285714285714286) translate(-59.46502685546875,0)" /></svg>