<svg baseProfile="full" height="192.0mm" version="1.1" viewBox="0 0 192.0 192.0" width="192.0mm" xmlns="http://www.w3.org/2000/svg" xmlns:ev="http://www.w3.org/2001/xml-events" xmlns:xlink="http://www.w3.org/1999/xlink"><defs /><rect fill="none" height="192.0" stroke="#0000FF" stroke-width="0.01" width="192.0" x="0" y="0" /><circle cx="4.0" cy="4.0" fill="none" r="1.65" stroke="#0000FF" stroke-width="0.01" /><circle cx="188.0" cy="4.0" fill="none" r="1.65" stroke="#0000FF" stroke-width="0.01" /><circle cx="4.0" cy="188.0" fill="none" r="1.65" stroke="#0000FF" stroke-width="0.01" /><circle cx="188.0" cy="188.0" fill="none" r="1.65" stroke="#0000FF" stroke-width="0.01" /><circle cx="16.400000000000006" cy="36.6" fill="none" r="2.5" stroke="#0000FF" stroke-width="0.01" /><circle cx="16.400000000000006" cy="46.6" fill="none" r="2.5" stroke="#0000FF" stroke-width="0.01" /><circle cx="16.400000000000006" cy="26.6" fill="none" r="2.5" stroke="#0000FF" stroke-width="0.01" /><rect fill="none" height="4.0" rx="2.0" ry="2.0" stroke="#0000FF" stroke-width="0.01" width="10.0" x="159.0" y="28.0" /><circle cx="150.0" cy="30.0" fill="none" r="1.1" stroke="#0000FF" stroke-width="0.01" /><circle cx="178.0" cy="30.0" fill="none" r="1.1" stroke="#0000FF" stroke-width="0.01" /><circle cx="88.0" cy="144.0" fill="none" r="1.0" stroke="#0000FF" stroke-width="0.01" /><circle cx="92.0" cy="144.0" fill="none" r="1.0" stroke="#0000FF" stroke-width="0.01" /><circle cx="96.0" cy="144.0" fill="none" r="1.0" stroke="#0000FF" stroke-width="0.01" /><circle cx="100.0" cy="144.0" fill="none" r="1.0" stroke="#0000FF" stroke-width="0.01" /><circle cx="104.0" cy="144.0" fill="none" r="1.0" stroke="#0000FF" stroke-width="0.01" /><circle cx="88.0" cy="148.0" fill="none" r="1.0" stroke="#0000FF" stroke-width="0.01" /><circle cx="92.0" cy="148.0" fill="none" r="1.0" stroke="#0000FF" stroke-width="0.01" /><circle cx="96.0" cy="148.0" fill="none" r="1.0" stroke="#0000FF" stroke-width="0.01" /><circle cx="100.0" cy="148.0" fill="none" r="1.0" stroke="#0000FF" stroke-width="0.01" /><circle cx="104.0" cy="148.0" fill="none" r="1.0" stroke="#0000FF" stroke-width="0.01" /><circle cx="88.0" cy="152.0" fill="none" r="1.0" stroke="#0000FF" stroke-width="0.01" /><circle cx="92.0" cy="152.0" fill="none" r="1.0" stroke="#0000FF" stroke-width="0.01" /><circle cx="96.0" cy="152.0" fill="none" r="1.0" stroke="#0000FF" stroke-width="0.01" /><circle cx="100.0" cy="152.0" fill="none" r="1.0" stroke="#0000FF" stroke-width="0.01" /><circle cx="104.0" cy="152.0" fill="none" r="1.0" stroke="#0000FF" stroke-width="0.01" /><circle cx="88.0" cy="156.0" fill="none" r="1.0" stroke="#0000FF" stroke-width="0.01" /><circle cx="92.0" cy="156.0" fill="none" r="1.0" stroke="#0000FF" stroke-width="0.01" /><circle cx="96.0" cy="156.0" fill="none" r="1.0" stroke="#0000FF" stroke-width="0.01" /><circle cx="100.0" cy="156.0" fill="none" r="1.0" stroke="#0000FF" stroke-width="0.01" /><circle cx="104.0" cy="156.0" fill="none" r="1.0" stroke="#0000FF" stroke-width="0.01" /><circle cx="88.0" cy="160.0" fill="none" r="1.0" stroke="#0000FF" stroke-width="0.01" /><circle cx="92.0" cy="160.0" fill="none" r="1.0" stroke="#0000FF" stroke-width="0.01" /><circle cx="96.0" cy="160.0" fill="none" r="1.0" stroke="#0000FF" stroke-width="0.01" /><circle cx="100.0" cy="160.0" fill="none" r="1.0" stroke="#0000FF" stroke-width="0.01" /><circle cx="104.0" cy="160.0" fill="none" r="1.0" stroke="#0000FF" stroke-width="0.01" /><path d="M867.8665771484375 1400Q897.6331176757812 1400 918.4164123535156 1408.5999755859375Q939.19970703125 1417.199951171875 954.5496520996094 1425.5332641601562Q969.8995971679688 1433.8665771484375 982.4661254882812 1433.8665771484375Q998.8325805664062 1433.8665771484375 1007.5158081054688 1424.8666687011719Q1016.1990356445312 1415.8667602539062 1022.6656494140625 1391.4002685546875L1105.1990356445312 1077.9331665039062Q1109.3656616210938 1063.3999633789062 1102.8990783691406 1054.3667297363281Q1096.4324951171875 1045.33349609375 1083.79931640625 1043.0001831054688Q1072.7327880859375 1040.9002075195312 1062.7495727539062 1045.3668212890625Q1052.766357421875 1049.8334350585938 1045.2664184570312 1064.4666137695312Q988.9662475585938 1176.5001220703125 941.1661071777344 1236.5002746582031Q893.365966796875 1296.5004272460938 844.0658874511719 1319.3838500976562Q794.7658081054688 1342.2672729492188 733.1991577148438 1342.2672729492188H493.3326416015625V108.4658203125Q493.3326416015625 91.132568359375 505.34930419921875 80.21597290039062Q517.365966796875 69.29937744140625 541.9326171875 65.9993896484375L649.2661743164062 53.53271484375Q664.8660278320312 51.16607666015625 671.4992980957031 44.466156005859375Q678.132568359375 37.7662353515625 678.132568359375 25.19970703125Q678.132568359375 14.1331787109375 670.0159912109375 7.06658935546875Q661.8994140625 0 644.3329467773438 0H124.865966796875Q107.566162109375 0 99.31625366210938 7.06658935546875Q91.06634521484375 14.1331787109375 91.06634521484375 25.19970703125Q91.06634521484375 46.1661376953125 117.7994384765625 53.26605224609375L190.9329833984375 65.9993896484375Q212.86627197265625 70.86602783203125 223.86624145507812 80.99929809570312Q234.8662109375 91.132568359375 234.8662109375 108.4658203125V1291.5341796875Q234.8662109375 1308.867431640625 223.86624145507812 1319.1173706054688Q212.86627197265625 1329.3673095703125 190.9329833984375 1334.0006103515625L117.7994384765625 1346.7339477539062Q91.06634521484375 1353.8338623046875 91.06634521484375 1374.80029296875Q91.06634521484375 1386.6334838867188 99.31625366210938 1393.3167419433594Q107.566162109375 1400 124.865966796875 1400ZM402.93304443359375 709.199951171875H710.7325439453125Q782.7660522460938 709.199951171875 815.3495178222656 738.800048828125Q847.9329833984375 768.400146484375 857.1995849609375 851.0670166015625Q860.3328857421875 864.8335571289062 866.7661437988281 870.8501586914062Q873.1994018554688 876.8667602539062 883.1992797851562 877.666748046875Q906.9990234375 879.7333984375 913.7322998046875 852.2669677734375L990.7323608398438 540.8666381835938Q994.8656616210938 526.0001220703125 990.5490417480469 517.4002075195312Q986.232421875 508.80029296875 975.4658813476562 505.1336669921875Q964.666015625 501.967041015625 954.9661254882812 505.6669921875Q945.2662353515625 509.366943359375 936.1996459960938 521.400146484375Q903.5328369140625 573.0669555664062 876.7827453613281 601.5837097167969Q850.0326538085938 630.1004638671875 818.9325866699219 641.183837890625Q787.83251953125 652.2672119140625 741.3324584960938 652.2672119140625H402.93304443359375Z" fill="#000000" stroke="none" transform="translate(82.3785853739082,96.0) scale(0.0035714285714285713,-0.0035714285714285713) translate(-91.06634521484375,0)" /><path d="M548.6325073242188 932.1994018554688Q689.3656616210938 932.1994018554688 797.3655395507812 871.2994384765625Q905.3654174804688 810.3994750976562 966.5986938476562 702.2495422363281Q1027.8319702148438 594.099609375 1027.8319702148438 452.46636962890625Q1027.8319702148438 314.73309326171875 965.2153625488281 207.53317260742188Q902.5987548828125 100.333251953125 792.6322021484375 39.0999755859375Q682.6656494140625 -22.13330078125 538.9658203125 -22.13330078125Q398.232666015625 -22.13330078125 290.5994567871094 38.449981689453125Q182.96624755859375 99.03326416015625 122.06631469726562 206.49984741210938Q61.1663818359375 313.9664306640625 61.1663818359375 454.3330078125Q61.1663818359375 593.3662719726562 123.19964599609375 700.9995422363281Q185.23291015625 808.6328125 294.96612548828125 870.4161071777344Q404.6993408203125 932.1994018554688 548.6325073242188 932.1994018554688ZM608.6656494140625 37.0660400390625Q680.9322509765625 45.99932861328125 726.9989013671875 100.482666015625Q773.0655517578125 154.96600341796875 788.715576171875 252.08273315429688Q804.3656005859375 349.199462890625 784.63232421875 485.43292236328125Q765.1657104492188 622.3663940429688 722.1324462890625 711.8831481933594Q679.0991821289062 801.39990234375 617.4325866699219 842.0499572753906Q555.7659912109375 882.7000122070312 480.5660400390625 873.0000610351562Q406.8994140625 863.8334350585938 360.9494323730469 808.7667541503906Q314.99945068359375 753.7000732421875 300.4161071777344 656.8333435058594Q285.832763671875 559.9666137695312 305.0660400390625 424.39984130859375Q324.53265380859375 289.5997314453125 368.04925537109375 199.83297729492188Q411.56585693359375 110.06622314453125 473.2157897949219 68.96615600585938Q534.86572265625 27.8660888671875 608.6656494140625 37.0660400390625Z" fill="#000000" stroke="none" transform="translate(86.25631888808958,96.0) scale(0.0035714285714285713,-0.0035714285714285713) translate(-61.1663818359375,0)" /><path d="M373.59930419921875 508.99969482421875Q373.59930419921875 648.099609375 413.48260498046875 742.3828735351562Q453.36590576171875 836.6661376953125 516.7658386230469 884.5661010742188Q580.165771484375 932.466064453125 650.5989990234375 932.466064453125Q734.298828125 932.466064453125 779.94873046875 883.8327941894531Q825.5986328125 835.1995239257812 825.5986328125 747.1996459960938Q825.5986328125 673.999755859375 793.5153198242188 637.4998168945312Q761.4320068359375 600.9998779296875 711.69873046875 600.9998779296875Q663.0988159179688 600.9998779296875 637.6155395507812 627.91650390625Q612.1322631835938 654.8331298828125 611.1989135742188 705.1997680664062L610.7322387695312 738.133056640625Q610.2322387695312 770.8663940429688 596.1655883789062 787.0997314453125Q582.0989379882812 803.3330688476562 549.265625 803.3330688476562Q511.86566162109375 803.3330688476562 477.0990295410156 770.8997192382812Q442.3323974609375 738.4663696289062 420.1324157714844 673.0830078125Q397.93243408203125 607.6996459960938 397.93243408203125 508.26629638671875ZM390.46588134765625 888.1997680664062 397.93243408203125 608.8655395507812V107.86590576171875Q397.93243408203125 88.33270263671875 407.09906005859375 77.28274536132812Q416.26568603515625 66.2327880859375 437.598876953125 62.6661376953125L530.4656372070312 48.7327880859375Q545.0321655273438 46.39947509765625 551.7154235839844 40.3662109375Q558.398681640625 34.33294677734375 558.398681640625 23.33306884765625Q558.398681640625 12.5665283203125 550.2821044921875 6.28326416015625Q542.16552734375 0 526.4656982421875 0H93.76593017578125Q78.03277587890625 0 70.2161865234375 6.5166015625Q62.39959716796875 13.033203125 62.39959716796875 23.29974365234375Q62.39959716796875 31.9329833984375 68.5828857421875 38.18292236328125Q74.76617431640625 44.432861328125 87.4327392578125 48.0994873046875L137.66619873046875 57.6661376953125Q153.86614990234375 61.76611328125 161.49945068359375 72.4993896484375Q169.13275146484375 83.232666015625 169.13275146484375 103.399169921875V764.9337158203125Q169.13275146484375 780.8002319335938 163.83279418945312 788.4001770019531Q158.5328369140625 796.0001220703125 145.93292236328125 797.3334350585938L79.39947509765625 799.2000732421875Q68.6329345703125 801.0667114257812 63.44964599609375 806.3999938964844Q58.266357421875 811.7332763671875 58.266357421875 819.599853515625Q58.266357421875 828.999755859375 64.38296508789062 835.1330261230469Q70.49957275390625 841.2662963867188 85.66607666015625 846.2662353515625L299.8001708984375 909.1995849609375Q327.0665283203125 919.199462890625 340.2830505371094 922.2327575683594Q353.49957275390625 925.2660522460938 361.79949951171875 925.2660522460938Q375.29937744140625 925.2660522460938 381.9493103027344 916.3161315917969Q388.5992431640625 907.3662109375 390.46588134765625 888.1997680664062Z" fill="#000000" stroke="none" transform="translate(89.95869598944282,96.0) scale(0.0035714285714285713,-0.0035714285714285713) translate(-58.266357421875,0)" /><path d="M494.4658203125 25.19970703125Q494.4658203125 14.1331787109375 486.06591796875 7.199920654296875Q477.666015625 0.26666259765625 460.3328857421875 0H101.9324951171875Q84.599365234375 0.26666259765625 76.06613159179688 7.199920654296875Q67.53289794921875 14.1331787109375 67.53289794921875 25.19970703125Q67.53289794921875 43.6328125 94.59930419921875 53.53271484375L155.26611328125 70.59942626953125Q198.23272705078125 84.966064453125 218.78280639648438 107.61611938476562Q239.3328857421875 130.26617431640625 239.3328857421875 176.8328857421875V1138.6007080078125Q239.3328857421875 1161.9005737304688 234.36627197265625 1176.1004638671875Q229.399658203125 1190.3003540039062 207.99981689453125 1217.0001831054688L119.19976806640625 1342.0671997070312Q109.5665283203125 1356.0004272460938 104.88320922851562 1364.1837158203125Q100.19989013671875 1372.3670043945312 100.19989013671875 1379.4002685546875Q100.19989013671875 1389.6668090820312 107.68313598632812 1394.8334045410156Q115.1663818359375 1400 128.1995849609375 1400H357.80010986328125Q375.7666015625 1400 387.74981689453125 1392.2333679199219Q399.7330322265625 1384.4667358398438 414.1329345703125 1364.0001831054688L1193.3990478515625 241.9990234375L1163.3326416015625 175.13299560546875V1223.1671142578125Q1163.3326416015625 1269.433837890625 1143.2158813476562 1292.4505615234375Q1123.09912109375 1315.46728515625 1078.33251953125 1329.4005737304688L1000.19873046875 1346.46728515625Q973.13232421875 1357.1671752929688 973.13232421875 1374.80029296875Q973.13232421875 1386.6334838867188 981.6655578613281 1393.3167419433594Q990.1987915039062 1400 1007.2652587890625 1400H1365.6656494140625Q1382.998779296875 1400 1391.5320129394531 1393.3167419433594Q1400.0652465820312 1386.6334838867188 1400.0652465820312 1374.80029296875Q1400.0652465820312 1356.6338500976562 1372.9988403320312 1346.46728515625L1312.33203125 1329.4005737304688Q1269.5987548828125 1316.2672729492188 1248.9320068359375 1293.2505493164062Q1228.2652587890625 1270.2338256835938 1228.2652587890625 1223.1671142578125V230.46600341796875Q1228.2652587890625 208.566162109375 1233.0819091796875 192.916259765625Q1237.8985595703125 177.266357421875 1247.4651489257812 163.3997802734375L1312.931884765625 69.66619873046875Q1326.4318237304688 50.6995849609375 1330.448486328125 40.932952880859375Q1334.4651489257812 31.16632080078125 1334.4651489257812 23.133056640625Q1334.4651489257812 12.86651611328125 1326.7485656738281 6.433258056640625Q1319.031982421875 0 1303.1987915039062 0H1062.1986694335938Q1031.7322387695312 0 1031.7322387695312 25.46649169921875Q1031.7322387695312 36.56640625 1027.4822692871094 47.399688720703125Q1023.2322998046875 58.23297119140625 1005.9324951171875 81.26605224609375L242.132568359375 1179.734375L304.2655029296875 1212.800537109375V176.3328857421875Q304.2655029296875 131.066162109375 324.5155944824219 108.18276977539062Q344.76568603515625 85.29937744140625 388.332275390625 70.59942626953125L467.3994140625 53.53271484375Q494.4658203125 43.36614990234375 494.4658203125 25.19970703125Z" fill="#000000" stroke="none" transform="translate(94.44916840155219,96.0) scale(0.0035714285714285713,-0.0035714285714285713) translate(-67.53289794921875,0)" /><path d="M548.6325073242188 932.1994018554688Q689.3656616210938 932.1994018554688 797.3655395507812 871.2994384765625Q905.3654174804688 810.3994750976562 966.5986938476562 702.2495422363281Q1027.8319702148438 594.099609375 1027.8319702148438 452.46636962890625Q1027.8319702148438 314.73309326171875 965.2153625488281 207.53317260742188Q902.5987548828125 100.333251953125 792.6322021484375 39.0999755859375Q682.6656494140625 -22.13330078125 538.9658203125 -22.13330078125Q398.232666015625 -22.13330078125 290.5994567871094 38.449981689453125Q182.96624755859375 99.03326416015625 122.06631469726562 206.49984741210938Q61.1663818359375 313.9664306640625 61.1663818359375 454.3330078125Q61.1663818359375 593.3662719726562 123.19964599609375 700.9995422363281Q185.23291015625 808.6328125 294.96612548828125 870.4161071777344Q404.6993408203125 932.1994018554688 548.6325073242188 932.1994018554688ZM608.6656494140625 37.0660400390625Q680.9322509765625 45.99932861328125 726.9989013671875 100.482666015625Q773.0655517578125 154.96600341796875 788.715576171875 252.08273315429688Q804.3656005859375 349.199462890625 784.63232421875 485.43292236328125Q765.1657104492188 622.3663940429688 722.1324462890625 711.8831481933594Q679.0991821289062 801.39990234375 617.4325866699219 842.0499572753906Q555.7659912109375 882.7000122070312 480.5660400390625 873.0000610351562Q406.8994140625 863.8334350585938 360.9494323730469 808.7667541503906Q314.99945068359375 753.7000732421875 300.4161071777344 656.8333435058594Q285.832763671875 559.9666137695312 305.0660400390625 424.39984130859375Q324.53265380859375 289.5997314453125 368.04925537109375 199.83297729492188Q411.56585693359375 110.06622314453125 473.2157897949219 68.96615600585938Q534.86572265625 27.8660888671875 608.6656494140625 37.0660400390625Z" fill="#000000" stroke="none" transform="translate(99.45821250381223,96.0) scale(0.0035714285714285713,-0.0035714285714285713) translate(-61.1663818359375,0)" /><path d="M373.59930419921875 508.99969482421875Q373.59930419921875 648.099609375 413.48260498046875 742.3828735351562Q453.36590576171875 836.6661376953125 516.7658386230469 884.5661010742188Q580.165771484375 932.466064453125 650.5989990234375 932.466064453125Q734.298828125 932.466064453125 779.94873046875 883.8327941894531Q825.5986328125 835.1995239257812 825.5986328125 747.1996459960938Q825.5986328125 673.999755859375 793.5153198242188 637.4998168945312Q761.4320068359375 600.9998779296875 711.69873046875 600.9998779296875Q663.0988159179688 600.9998779296875 637.6155395507812 627.91650390625Q612.1322631835938 654.8331298828125 611.1989135742188 705.1997680664062L610.7322387695312 738.133056640625Q610.2322387695312 770.8663940429688 596.1655883789062 787.0997314453125Q582.0989379882812 803.3330688476562 549.265625 803.3330688476562Q511.86566162109375 803.3330688476562 477.0990295410156 770.8997192382812Q442.3323974609375 738.4663696289062 420.1324157714844 673.0830078125Q397.93243408203125 607.6996459960938 397.93243408203125 508.26629638671875ZM390.46588134765625 888.1997680664062 397.93243408203125 608.8655395507812V107.86590576171875Q397.93243408203125 88.33270263671875 407.09906005859375 77.28274536132812Q416.26568603515625 66.2327880859375 437.598876953125 62.6661376953125L530.4656372070312 48.7327880859375Q545.0321655273438 46.39947509765625 551.7154235839844 40.3662109375Q558.398681640625 34.33294677734375 558.398681640625 23.33306884765625Q558.398681640625 12.5665283203125 550.2821044921875 6.28326416015625Q542.16552734375 0 526.4656982421875 0H93.76593017578125Q78.03277587890625 0 70.2161865234375 6.5166015625Q62.39959716796875 13.033203125 62.39959716796875 23.29974365234375Q62.39959716796875 31.9329833984375 68.5828857421875 38.18292236328125Q74.76617431640625 44.432861328125 87.4327392578125 48.0994873046875L137.66619873046875 57.6661376953125Q153.86614990234375 61.76611328125 161.49945068359375 72.4993896484375Q169.13275146484375 83.232666015625 169.13275146484375 103.399169921875V764.9337158203125Q169.13275146484375 780.8002319335938 163.83279418945312 788.4001770019531Q158.5328369140625 796.0001220703125 145.93292236328125 797.3334350585938L79.39947509765625 799.2000732421875Q68.6329345703125 801.0667114257812 63.44964599609375 806.3999938964844Q58.266357421875 811.7332763671875 58.266357421875 819.599853515625Q58.266357421875 828.999755859375 64.38296508789062 835.1330261230469Q70.49957275390625 841.2662963867188 85.66607666015625 846.2662353515625L299.8001708984375 909.1995849609375Q327.0665283203125 919.199462890625 340.2830505371094 922.2327575683594Q353.49957275390625 925.2660522460938 361.79949951171875 925.2660522460938Q375.29937744140625 925.2660522460938 381.9493103027344 916.3161315917969Q388.5992431640625 907.3662109375 390.46588134765625 888.1997680664062Z" fill="#000000" stroke="none" transform="translate(103.16058960516547,96.0) scale(0.0035714285714285713,-0.0035714285714285713) translate(-58.266357421875,0)" /><path d="M632.89892578125 110.36639404296875V125.032958984375L619.9323120117188 123.99951171875V725.66650390625Q619.9323120117188 805.099853515625 583.5657043457031 847.5831909179688Q547.1990966796875 890.0665283203125 479.13250732421875 890.0665283203125Q410.4658203125 890.0665283203125 376.16583251953125 859.1331481933594Q341.8658447265625 828.1997680664062 341.8658447265625 788.1997680664062V708.66650390625Q341.8658447265625 658.3665771484375 308.0825500488281 628.64990234375Q274.29925537109375 598.9332275390625 217.26605224609375 598.9332275390625Q171.06622314453125 598.9332275390625 144.86627197265625 623.8665161132812Q118.66632080078125 648.7998046875 118.66632080078125 694.3997802734375Q118.66632080078125 751.766357421875 164.24957275390625 806.4829406738281Q209.83282470703125 861.1995239257812 298.2993469238281 896.7994689941406Q386.765869140625 932.3994140625 515.0989990234375 932.3994140625Q683.2655029296875 932.3994140625 765.5654296875 861.4328002929688Q847.8653564453125 790.4661865234375 847.8653564453125 666.8662109375V138.93292236328125Q847.8653564453125 105.19952392578125 860.2153625488281 89.76617431640625Q872.5653686523438 74.33282470703125 892.898681640625 74.33282470703125Q913.8319702148438 74.33282470703125 926.21533203125 85.33282470703125Q938.5986938476562 96.33282470703125 944.2653198242188 113.1329345703125Q947.4319458007812 118.23291015625 951.1985778808594 121.34954833984375Q954.9652099609375 124.4661865234375 960.198486328125 124.4661865234375Q967.4984130859375 124.4661865234375 970.8983764648438 119.34957885742188Q974.29833984375 114.23297119140625 974.29833984375 105.133056640625Q974.29833984375 80.16650390625 955.348388671875 50.8665771484375Q936.3984375 21.566650390625 897.3984985351562 0.300018310546875Q858.3985595703125 -20.96661376953125 797.73193359375 -20.96661376953125Q718.1320190429688 -20.96661376953125 675.5154724121094 14.199981689453125Q632.89892578125 49.3665771484375 632.89892578125 110.36639404296875ZM72.599609375 201.533203125Q72.599609375 315.83306884765625 171.69943237304688 387.3163146972656Q270.79925537109375 458.799560546875 460.8658447265625 458.799560546875Q527.1325073242188 458.799560546875 576.2824096679688 446.5828857421875Q625.4323120117188 434.3662109375 664.332275390625 415.59954833984375L650.932373046875 380.066650390625Q613.6323852539062 396.79998779296875 574.4823913574219 406.9333190917969Q535.3323974609375 417.066650390625 488.13238525390625 417.066650390625Q401.09912109375 417.066650390625 353.2158508300781 369.3999328613281Q305.33258056640625 321.73321533203125 305.33258056640625 237.866455078125Q305.33258056640625 155.69970703125 347.61590576171875 111.649658203125Q389.89923095703125 67.599609375 457.132568359375 67.599609375Q510.86578369140625 67.599609375 561.6156921386719 92.0828857421875Q612.3656005859375 116.566162109375 647.4321899414062 161.66607666015625L663.5654296875 130.59979248046875Q612.3655395507812 57.63323974609375 527.0490112304688 18.216644287109375Q441.73248291015625 -21.199951171875 344.9326171875 -21.199951171875Q223.8660888671875 -21.199951171875 148.23284912109375 40.333343505859375Q72.599609375 101.86663818359375 72.599609375 201.533203125Z" fill="#000000" stroke="none" transform="translate(106.15106201727484,96.0) scale(0.0035714285714285713,-0.0035714285714285713) translate(-72.599609375,0)" /><path d="M402.13250732421875 1443.0003662109375V105.53253173828125Q402.13250732421875 83.96600341796875 409.8824768066406 72.86605834960938Q417.6324462890625 61.76611328125 433.59906005859375 57.6661376953125L482.99920654296875 47.89947509765625Q495.93243408203125 44.4661865234375 501.66571044921875 38.332916259765625Q507.39898681640625 32.19964599609375 507.39898681640625 23.06640625Q507.39898681640625 12.5665283203125 499.799072265625 6.28326416015625Q492.19915771484375 0 476.1993408203125 0H96.79931640625Q81.76617431640625 0 74.18292236328125 6.28326416015625Q66.59967041015625 12.5665283203125 66.59967041015625 23.06640625Q66.59967041015625 31.69964599609375 72.66629028320312 38.066253662109375Q78.73291015625 44.432861328125 91.86614990234375 48.0994873046875L141.86627197265625 57.6661376953125Q158.06622314453125 62.03277587890625 165.69952392578125 72.86605834960938Q173.33282470703125 83.6993408203125 173.33282470703125 104.7991943359375V1316.6008911132812Q173.33282470703125 1332.2340698242188 167.91619873046875 1339.4840087890625Q162.49957275390625 1346.7339477539062 149.899658203125 1348.0672607421875L84.53289794921875 1349.9338989257812Q73.06634521484375 1351.800537109375 67.99972534179688 1357.1338195800781Q62.93310546875 1362.4671020507812 62.93310546875 1370.5670166015625Q62.93310546875 1380.2002563476562 68.9163818359375 1385.9668579101562Q74.899658203125 1391.7334594726562 89.86614990234375 1397.0000610351562L305.633544921875 1464.900146484375Q329.066650390625 1473.2667236328125 342.18316650390625 1476.433349609375Q355.2996826171875 1479.5999755859375 365.1995849609375 1479.5999755859375Q383.79937744140625 1479.5999755859375 392.9659423828125 1469.5500793457031Q402.13250732421875 1459.5001831054688 402.13250732421875 1443.0003662109375Z" fill="#000000" stroke="none" transform="translate(82.7124544416155,104.0) scale(0.0035714285714285713,-0.0035714285714285713) translate(-62.93310546875,0)" /><path d="M548.6325073242188 932.1994018554688Q689.3656616210938 932.1994018554688 797.3655395507812 871.2994384765625Q905.3654174804688 810.3994750976562 966.5986938476562 702.2495422363281Q1027.8319702148438 594.099609375 1027.8319702148438 452.46636962890625Q1027.8319702148438 314.73309326171875 965.2153625488281 207.53317260742188Q902.5987548828125 100.333251953125 792.6322021484375 39.0999755859375Q682.6656494140625 -22.13330078125 538.9658203125 -22.13330078125Q398.232666015625 -22.13330078125 290.5994567871094 38.449981689453125Q182.96624755859375 99.03326416015625 122.06631469726562 206.49984741210938Q61.1663818359375 313.9664306640625 61.1663818359375 454.3330078125Q61.1663818359375 593.3662719726562 123.19964599609375 700.9995422363281Q185.23291015625 808.6328125 294.96612548828125 870.4161071777344Q404.6993408203125 932.1994018554688 548.6325073242188 932.1994018554688ZM608.6656494140625 37.0660400390625Q680.9322509765625 45.99932861328125 726.9989013671875 100.482666015625Q773.0655517578125 154.96600341796875 788.715576171875 252.08273315429688Q804.3656005859375 349.199462890625 784.63232421875 485.43292236328125Q765.1657104492188 622.3663940429688 722.1324462890625 711.8831481933594Q679.0991821289062 801.39990234375 617.4325866699219 842.0499572753906Q555.7659912109375 882.7000122070312 480.5660400390625 873.0000610351562Q406.8994140625 863.8334350585938 360.9494323730469 808.7667541503906Q314.99945068359375 753.7000732421875 300.4161071777344 656.8333435058594Q285.832763671875 559.9666137695312 305.0660400390625 424.39984130859375Q324.53265380859375 289.5997314453125 368.04925537109375 199.83297729492188Q411.56585693359375 110.06622314453125 473.2157897949219 68.96615600585938Q534.86572265625 27.8660888671875 608.6656494140625 37.0660400390625Z" fill="#000000" stroke="none" transform="translate(84.54983258928571,104.0) scale(0.0035714285714285713,-0.0035714285714285713) translate(-61.1663818359375,0)" /><path d="M546.7657470703125 -6.49993896484375H461.43243408203125Q442.9326171875 -6.49993896484375 429.8160705566406 2.88330078125Q416.69952392578125 12.26654052734375 408.86627197265625 31.7996826171875L111.099609375 794.8667602539062Q99.2996826171875 824.7999267578125 88.63302612304688 838.1665954589844Q77.96636962890625 851.5332641601562 61.99969482421875 854.7999267578125L24.46630859375 863.0332641601562Q10.79974365234375 867.1665649414062 5.266448974609375 872.91650390625Q-0.266845703125 878.6664428710938 -0.266845703125 888.0663452148438Q-0.266845703125 899.299560546875 7.8497314453125 905.3494873046875Q15.96630859375 911.3994140625 29.39947509765625 911.3994140625H453.96612548828125Q484.09912109375 911.3994140625 484.09912109375 888.3330078125Q484.09912109375 878.93310546875 478.3658447265625 873.16650390625Q472.632568359375 867.39990234375 458.099365234375 864.0332641601562L414.4326171875 855.8665771484375Q365.06591796875 846.1332397460938 355.4825744628906 826.4999694824219Q345.89923095703125 806.86669921875 363.29913330078125 761.1336059570312L602.6657104492188 129.30023193359375L555.3658447265625 79.1331787109375L804.5657958984375 750.4000854492188Q823.36572265625 800.833251953125 812.3823547363281 823.9665832519531Q801.3989868164062 847.0999145507812 753.8989868164062 855.8665771484375L707.8988647460938 864.0332641601562Q693.8656616210938 867.39990234375 687.8823852539062 873.0331726074219Q681.8991088867188 878.6664428710938 681.8991088867188 888.3330078125Q681.8991088867188 899.5662231445312 690.0156860351562 905.4828186035156Q698.1322631835938 911.3994140625 712.0321044921875 911.3994140625H979.8319702148438Q993.7318115234375 911.3994140625 1001.6150512695312 905.3494873046875Q1009.498291015625 899.299560546875 1009.498291015625 888.0663452148438Q1009.498291015625 879.4664306640625 1004.0816650390625 873.4498291015625Q998.6650390625 867.4332275390625 983.1651611328125 863.5665893554688L948.9318237304688 856.833251953125Q926.6984252929688 851.6332397460938 910.53173828125 830.083251953125Q894.3650512695312 808.5332641601562 876.0984497070312 759.5333862304688L597.865234375 28.39971923828125Q589.9986572265625 8.2999267578125 576.7154541015625 0.899993896484375Q563.4322509765625 -6.49993896484375 546.7657470703125 -6.49993896484375Z" fill="#000000" stroke="none" transform="translate(88.25220969063895,104.0) scale(0.0035714285714285713,-0.0035714285714285713) translate(0.266845703125,0)" /><path d="M905.7653198242188 557.9994506835938Q905.7653198242188 527.3331298828125 887.7155151367188 510.5999755859375Q869.6657104492188 493.8668212890625 834.8994140625 493.8668212890625H209.432861328125V539.4663696289062H640.6992797851562Q675.3656616210938 539.4663696289062 675.3656616210938 572.1328125Q675.3656616210938 722.7998046875 623.6490173339844 800.2332458496094Q571.932373046875 877.6666870117188 489.69915771484375 877.6666870117188Q422.99920654296875 877.6666870117188 373.499267578125 836.933349609375Q323.99932861328125 796.2000122070312 296.4493713378906 718.1666259765625Q268.8994140625 640.1332397460938 268.8994140625 528.7330932617188Q268.8994140625 328.06634521484375 359.349365234375 225.86630249023438Q449.79931640625 123.666259765625 596.4658813476562 123.666259765625Q693.6992797851562 123.666259765625 764.2659606933594 171.68307495117188Q834.8326416015625 219.69989013671875 858.09912109375 302.4334716796875Q866.5989990234375 314.16668701171875 872.6156005859375 318.4666442871094Q878.6322021484375 322.7666015625 884.9654541015625 322.7666015625Q894.1320190429688 322.7666015625 898.6653137207031 314.88336181640625Q903.1986083984375 307.0001220703125 902.6986083984375 294.56689453125Q896.7652587890625 206.20013427734375 844.2319641113281 134.23342895507812Q791.6986694335938 62.2667236328125 704.5654296875 20.06671142578125Q617.4321899414062 -22.13330078125 507.065673828125 -22.13330078125Q374.56585693359375 -22.13330078125 273.43267822265625 34.666656494140625Q172.29949951171875 91.46661376953125 115.43292236328125 194.7498779296875Q58.56634521484375 298.03314208984375 58.56634521484375 436.6663818359375Q58.56634521484375 581.7329711914062 114.68295288085938 693.5162353515625Q170.799560546875 805.2994995117188 274.1994323730469 869.1161193847656Q377.59930419921875 932.9327392578125 518.6990966796875 932.9327392578125Q638.0989379882812 932.9327392578125 724.8821716308594 884.6827392578125Q811.6654052734375 836.4327392578125 858.7153625488281 751.8994140625Q905.7653198242188 667.3660888671875 905.7653198242188 557.9994506835938Z" fill="#000000" stroke="none" transform="translate(92.10851375034878,104.0) scale(0.0035714285714285713,-0.0035714285714285713) translate(-58.56634521484375,0)" /><path d="M91.06634521484375 25.19970703125Q91.06634521484375 46.39947509765625 117.09942626953125 53.26605224609375L192.7996826171875 66.23272705078125Q214.26629638671875 71.099365234375 224.56625366210938 81.34930419921875Q234.8662109375 91.5992431640625 234.8662109375 108.9324951171875V1289.9008178710938Q234.8662109375 1308.1674194335938 224.56625366210938 1318.5340270996094Q214.26629638671875 1328.900634765625 192.7996826171875 1333.7672729492188L116.63275146484375 1346.96728515625Q91.06634521484375 1354.0671997070312 91.06634521484375 1375.0336303710938Q91.06634521484375 1387.1001586914062 99.31625366210938 1393.5500793457031Q107.566162109375 1400 124.63262939453125 1400H612.2322387695312Q796.3988647460938 1400 947.1321716308594 1346.3166809082031Q1097.865478515625 1292.6333618164062 1206.68212890625 1192.8000183105469Q1315.498779296875 1092.9666748046875 1374.2654418945312 954.3332824707031Q1433.0321044921875 815.6998901367188 1433.0321044921875 645.2664184570312Q1433.0321044921875 451.53302001953125 1344.9320983886719 306.3830871582031Q1256.8320922851562 161.233154296875 1095.2154846191406 80.6165771484375Q933.598876953125 0 712.0324096679688 0H124.63262939453125Q107.33282470703125 0 99.1995849609375 6.949920654296875Q91.06634521484375 13.89984130859375 91.06634521484375 25.19970703125ZM699.7659301757812 56.9993896484375Q837.8657836914062 56.9993896484375 941.9657287597656 123.1494140625Q1046.065673828125 189.2994384765625 1104.4656677246094 323.4495544433594Q1162.8656616210938 457.59967041015625 1162.8656616210938 661.7332763671875Q1162.8656616210938 821.3668212890625 1124.1490173339844 947.5669555664062Q1085.432373046875 1073.76708984375 1011.5657348632812 1161.9838256835938Q937.6990966796875 1250.2005615234375 832.8324584960938 1296.6005859375Q727.9658203125 1343.0006103515625 595.899169921875 1343.0006103515625H493.3326416015625V121.265625Q493.3326416015625 88.7991943359375 512.2991638183594 72.8992919921875Q531.2656860351562 56.9993896484375 568.5320434570312 56.9993896484375Z" fill="#000000" stroke="none" transform="translate(96.88422437395369,104.0) scale(0.0035714285714285713,-0.0035714285714285713) translate(-91.06634521484375,0)" /><path d="M632.89892578125 110.36639404296875V125.032958984375L619.9323120117188 123.99951171875V725.66650390625Q619.9323120117188 805.099853515625 583.5657043457031 847.5831909179688Q547.1990966796875 890.0665283203125 479.13250732421875 890.0665283203125Q410.4658203125 890.0665283203125 376.16583251953125 859.1331481933594Q341.8658447265625 828.1997680664062 341.8658447265625 788.1997680664062V708.66650390625Q341.8658447265625 658.3665771484375 308.0825500488281 628.64990234375Q274.29925537109375 598.9332275390625 217.26605224609375 598.9332275390625Q171.06622314453125 598.9332275390625 144.86627197265625 623.8665161132812Q118.66632080078125 648.7998046875 118.66632080078125 694.3997802734375Q118.66632080078125 751.766357421875 164.24957275390625 806.4829406738281Q209.83282470703125 861.1995239257812 298.2993469238281 896.7994689941406Q386.765869140625 932.3994140625 515.0989990234375 932.3994140625Q683.2655029296875 932.3994140625 765.5654296875 861.4328002929688Q847.8653564453125 790.4661865234375 847.8653564453125 666.8662109375V138.93292236328125Q847.8653564453125 105.19952392578125 860.2153625488281 89.76617431640625Q872.5653686523438 74.33282470703125 892.898681640625 74.33282470703125Q913.8319702148438 74.33282470703125 926.21533203125 85.33282470703125Q938.5986938476562 96.33282470703125 944.2653198242188 113.1329345703125Q947.4319458007812 118.23291015625 951.1985778808594 121.34954833984375Q954.9652099609375 124.4661865234375 960.198486328125 124.4661865234375Q967.4984130859375 124.4661865234375 970.8983764648438 119.34957885742188Q974.29833984375 114.23297119140625 974.29833984375 105.133056640625Q974.29833984375 80.16650390625 955.348388671875 50.8665771484375Q936.3984375 21.566650390625 897.3984985351562 0.300018310546875Q858.3985595703125 -20.96661376953125 797.73193359375 -20.96661376953125Q718.1320190429688 -20.96661376953125 675.5154724121094 14.199981689453125Q632.89892578125 49.3665771484375 632.89892578125 110.36639404296875ZM72.599609375 201.533203125Q72.599609375 315.83306884765625 171.69943237304688 387.3163146972656Q270.79925537109375 458.799560546875 460.8658447265625 458.799560546875Q527.1325073242188 458.799560546875 576.2824096679688 446.5828857421875Q625.4323120117188 434.3662109375 664.332275390625 415.59954833984375L650.932373046875 380.066650390625Q613.6323852539062 396.79998779296875 574.4823913574219 406.9333190917969Q535.3323974609375 417.066650390625 488.13238525390625 417.066650390625Q401.09912109375 417.066650390625 353.2158508300781 369.3999328613281Q305.33258056640625 321.73321533203125 305.33258056640625 237.866455078125Q305.33258056640625 155.69970703125 347.61590576171875 111.649658203125Q389.89923095703125 67.599609375 457.132568359375 67.599609375Q510.86578369140625 67.599609375 561.6156921386719 92.0828857421875Q612.3656005859375 116.566162109375 647.4321899414062 161.66607666015625L663.5654296875 130.59979248046875Q612.3655395507812 57.63323974609375 527.0490112304688 18.216644287109375Q441.73248291015625 -21.199951171875 344.9326171875 -21.199951171875Q223.8660888671875 -21.199951171875 148.23284912109375 40.333343505859375Q72.599609375 101.86663818359375 72.599609375 201.533203125Z" fill="#000000" stroke="none" transform="translate(101.92695922851563,104.0) scale(0.0035714285714285713,-0.0035714285714285713) translate(-72.599609375,0)" /><path d="M752.4323120117188 144.33294677734375 748.432373046875 149.6329345703125V1316.6008911132812Q748.432373046875 1332.2340698242188 743.0157470703125 1339.4840087890625Q737.59912109375 1346.7339477539062 724.9992065429688 1348.0672607421875L659.6324462890625 1349.9338989257812Q648.1658935546875 1351.800537109375 643.0992736816406 1357.1338195800781Q638.0326538085938 1362.4671020507812 638.0326538085938 1370.5670166015625Q638.0326538085938 1380.2002563476562 644.0159301757812 1385.9668579101562Q649.9992065429688 1391.7334594726562 664.9656982421875 1397.0000610351562L880.7330932617188 1464.900146484375Q903.3662109375 1473.0000610351562 916.6160583496094 1476.3000183105469Q929.8659057617188 1479.5999755859375 941.3657836914062 1479.5999755859375Q959.1655883789062 1479.5999755859375 968.1988220214844 1469.5500793457031Q977.2320556640625 1459.5001831054688 977.2320556640625 1443.0003662109375V105.53253173828125Q977.2320556640625 83.96600341796875 984.9820251464844 72.86605834960938Q992.7319946289062 61.76611328125 1008.6986083984375 57.6661376953125L1058.0987548828125 47.89947509765625Q1071.031982421875 44.4661865234375 1076.7652587890625 38.332916259765625Q1082.49853515625 32.19964599609375 1082.49853515625 23.06640625Q1082.49853515625 12.5665283203125 1074.8986206054688 6.28326416015625Q1067.2987060546875 0 1051.2988891601562 0H825.0316162109375Q792.5652465820312 0 772.498779296875 19.633148193359375Q752.4323120117188 39.26629638671875 752.4323120117188 74.46600341796875ZM63.23309326171875 431.43304443359375Q63.23309326171875 585.7662963867188 123.09970092773438 698.1828918457031Q182.96630859375 810.5994873046875 283.932861328125 871.5327758789062Q384.8994140625 932.466064453125 508.29925537109375 932.466064453125Q618.9657592773438 932.466064453125 699.4822082519531 882.7828674316406Q779.9986572265625 833.0996704101562 830.3651733398438 743.066650390625L790.4321899414062 710.0003662109375Q749.2656860351562 784.1334838867188 688.5491333007812 824.0334167480469Q627.8325805664062 863.933349609375 552.6992797851562 863.933349609375Q481.53265380859375 863.933349609375 424.0660095214844 821.0Q366.599365234375 778.066650390625 333.08270263671875 687.8832397460938Q299.5660400390625 597.6998291015625 299.5660400390625 455.4329833984375Q299.5660400390625 325.3662109375 330.4493408203125 239.48281860351562Q361.3326416015625 153.59942626953125 415.4159240722656 111.06607055664062Q469.49920654296875 68.53271484375 538.9658203125 68.53271484375Q604.332275390625 68.53271484375 666.8488464355469 106.3492431640625Q729.3654174804688 144.165771484375 783.765380859375 224.26556396484375L809.4984741210938 189.5325927734375Q732.6651611328125 83.73284912109375 645.3821105957031 30.799774169921875Q558.0990600585938 -22.13330078125 453.4993896484375 -22.13330078125Q340.83282470703125 -22.13330078125 252.61624145507812 34.63330078125Q164.399658203125 91.39990234375 113.81637573242188 193.58316040039062Q63.23309326171875 295.76641845703125 63.23309326171875 431.43304443359375Z" fill="#000000" stroke="none" transform="translate(105.3973118373326,104.0) scale(0.0035714285714285713,-0.0035714285714285713) translate(-63.23309326171875,0)" /><path d="M904.098876953125 412.36773681640625 844.699462890625 378.034423828125 1215.9990234375 1342.4671020507812Q1228.3656005859375 1375.633544921875 1243.9821166992188 1387.8167724609375Q1259.5986328125 1400 1287.3983764648438 1400H1569.9320678710938Q1587.2651977539062 1400 1595.9151000976562 1393.3167419433594Q1604.5650024414062 1386.6334838867188 1604.5650024414062 1374.80029296875Q1604.5650024414062 1364.833740234375 1598.1983947753906 1357.8838195800781Q1591.831787109375 1350.9338989257812 1577.5319213867188 1347.0006103515625L1505.8316040039062 1333.0006103515625Q1479.4317626953125 1326.767333984375 1469.26513671875 1311.4507141113281Q1459.0985107421875 1296.1340942382812 1461.1651611328125 1264.13427734375L1544.798583984375 123.4658203125Q1546.798583984375 94.83258056640625 1556.4151916503906 83.63262939453125Q1566.0317993164062 72.43267822265625 1591.9317016601562 66.26605224609375L1660.031982421875 52.9993896484375Q1673.7985229492188 49.56610107421875 1679.8984680175781 42.99951171875Q1685.9984130859375 36.43292236328125 1685.9984130859375 26.266357421875Q1685.9984130859375 15.1998291015625 1677.4818420410156 7.59991455078125Q1668.9652709960938 0 1651.6321411132812 0H1177.5652465820312Q1159.998779296875 0 1151.348876953125 7.06658935546875Q1142.698974609375 14.1331787109375 1142.698974609375 25.19970703125Q1142.698974609375 35.36627197265625 1148.7989196777344 42.19952392578125Q1154.8988647460938 49.03277587890625 1170.2320556640625 52.9993896484375L1238.3656616210938 66.26605224609375Q1267.66552734375 73.232666015625 1278.1988220214844 85.4326171875Q1288.7321166992188 97.632568359375 1287.1987915039062 123.19915771484375L1201.9654541015625 1251.0003051757812L1255.0648803710938 1258.3336791992188L834.6317749023438 143.8668212890625Q823.7651977539062 114.16705322265625 812.5819702148438 105.3837890625Q801.3987426757812 96.60052490234375 787.2655639648438 96.60052490234375Q777.0323486328125 96.60052490234375 768.2824401855469 100.183837890625Q759.5325317382812 103.76715087890625 751.8492736816406 114.23373413085938Q744.166015625 124.7003173828125 735.5994262695312 145.73345947265625L295.23272705078125 1235.4671020507812L345.56549072265625 1265.8003540039062L260.465576171875 169.36614990234375Q257.4322509765625 128.99951171875 280.03228759765625 105.33279418945312Q302.63232421875 81.66607666015625 343.69903564453125 68.06610107421875L417.69940185546875 50.59942626953125Q428.56597900390625 46.6661376953125 434.54925537109375 41.16619873046875Q440.53253173828125 35.666259765625 440.53253173828125 25.99969482421875Q440.53253173828125 14.66650390625 432.115966796875 7.333251953125Q423.69940185546875 0 406.36627197265625 0H58.29913330078125Q40.96600341796875 0 32.56610107421875 7.06658935546875Q24.16619873046875 14.1331787109375 24.16619873046875 25.19970703125Q24.16619873046875 37.23291015625 32.099456787109375 43.2828369140625Q40.03271484375 49.332763671875 52.83258056640625 53.79937744140625L108.7327880859375 69.19940185546875Q146.76617431640625 80.66607666015625 169.39956665039062 104.86611938476562Q192.032958984375 129.066162109375 195.29962158203125 170.566162109375L277.8662109375 1227.3671264648438Q282.06622314453125 1275.2672119140625 270.9662780761719 1300.6839294433594Q259.8663330078125 1326.1006469726562 229.499755859375 1332.533935546875L166.16619873046875 1344.0672607421875Q148.76629638671875 1348.4672241210938 140.59967041015625 1355.1671447753906Q132.43304443359375 1361.8670654296875 132.43304443359375 1373.3336181640625Q132.43304443359375 1400 171.099365234375 1400H454.06646728515625Q480.06622314453125 1400 495.7994079589844 1389.4000854492188Q511.5325927734375 1378.8001708984375 523.6991577148438 1346.7337646484375Z" fill="#000000" stroke="none" transform="translate(24.400000000000006,37.6) scale(0.002142857142857143,-0.002142857142857143) translate(-24.16619873046875,0)" /><path d="M399.79913330078125 890.9998168945312V105.53253173828125Q399.79913330078125 83.96600341796875 407.5491027832031 72.86605834960938Q415.299072265625 61.76611328125 431.26568603515625 57.6661376953125L480.66583251953125 47.89947509765625Q493.59906005859375 44.4661865234375 499.33233642578125 38.332916259765625Q505.06561279296875 32.19964599609375 505.06561279296875 23.06640625Q505.06561279296875 12.5665283203125 497.4656982421875 6.28326416015625Q489.86578369140625 0 473.865966796875 0H94.4659423828125Q79.43280029296875 0 71.84954833984375 6.28326416015625Q64.26629638671875 12.5665283203125 64.26629638671875 23.06640625Q64.26629638671875 31.46630859375 69.86624145507812 37.48291015625Q75.4661865234375 43.49951171875 87.66607666015625 47.1661376953125L139.53289794921875 57.6661376953125Q155.73284912109375 62.03277587890625 163.36614990234375 72.86605834960938Q170.99945068359375 83.6993408203125 170.99945068359375 104.7991943359375V764.600341796875Q170.99945068359375 780.2335205078125 165.58282470703125 787.4834594726562Q160.16619873046875 794.7333984375 147.5662841796875 796.0667114257812L82.19952392578125 797.933349609375Q70.73297119140625 799.7999877929688 65.66635131835938 805.1332702636719Q60.5997314453125 810.466552734375 60.5997314453125 818.5664672851562Q60.5997314453125 828.19970703125 66.5830078125 833.96630859375Q72.5662841796875 839.73291015625 87.53277587890625 844.99951171875L303.3001708984375 912.8995971679688Q326.7332763671875 921.2661743164062 339.84979248046875 924.4328002929688Q352.96630859375 927.5994262695312 362.8662109375 927.5994262695312Q381.46600341796875 927.5994262695312 390.632568359375 917.5495300292969Q399.79913330078125 907.4996337890625 399.79913330078125 890.9998168945312ZM271.06610107421875 1085.2325439453125Q205.99957275390625 1085.2325439453125 165.9329833984375 1123.3825378417969Q125.86639404296875 1161.5325317382812 125.86639404296875 1220.032470703125Q125.86639404296875 1278.7657470703125 166.16632080078125 1316.5157470703125Q206.46624755859375 1354.2657470703125 271.06610107421875 1354.2657470703125Q336.63262939453125 1354.2657470703125 377.2992248535156 1316.2657470703125Q417.9658203125 1278.2657470703125 417.9658203125 1220.032470703125Q417.9658203125 1161.5325317382812 377.18255615234375 1123.3825378417969Q336.3992919921875 1085.2325439453125 271.06610107421875 1085.2325439453125Z" fill="#000000" stroke="none" transform="translate(28.111069030761726,37.6) scale(0.002142857142857143,-0.002142857142857143) translate(-60.5997314453125,0)" /><path d="M397.46575927734375 890.9998168945312V105.53253173828125Q397.46575927734375 83.96600341796875 405.2157287597656 72.9993896484375Q412.9656982421875 62.03277587890625 428.93231201171875 57.6661376953125L477.79913330078125 47.6328125Q499.53228759765625 40.53289794921875 499.53228759765625 24.133056640625Q499.53228759765625 0 468.06597900390625 0H92.132568359375Q77.09942626953125 0 69.51617431640625 6.28326416015625Q61.93292236328125 12.5665283203125 61.93292236328125 23.06640625Q61.93292236328125 31.46630859375 67.53286743164062 37.48291015625Q73.1328125 43.49951171875 85.33270263671875 47.1661376953125L137.19952392578125 57.6661376953125Q153.39947509765625 62.03277587890625 161.03277587890625 72.86605834960938Q168.66607666015625 83.6993408203125 168.66607666015625 104.7991943359375V764.600341796875Q168.66607666015625 780.2335205078125 163.24945068359375 787.4834594726562Q157.83282470703125 794.7333984375 145.23291015625 796.0667114257812L79.86614990234375 797.933349609375Q68.39959716796875 799.7999877929688 63.332977294921875 805.1332702636719Q58.266357421875 810.466552734375 58.266357421875 818.5664672851562Q58.266357421875 828.19970703125 64.2496337890625 833.96630859375Q70.23291015625 839.73291015625 85.19940185546875 844.99951171875L300.966796875 912.8995971679688Q323.59991455078125 920.99951171875 336.8497619628906 924.2994689941406Q350.099609375 927.5994262695312 361.5994873046875 927.5994262695312Q379.3992919921875 927.5994262695312 388.4325256347656 917.5495300292969Q397.46575927734375 907.4996337890625 397.46575927734375 890.9998168945312ZM373.53253173828125 685.8333740234375 346.39947509765625 713.7330932617188 384.8660888671875 747.8997192382812Q495.46588134765625 847.1328735351562 575.0657348632812 889.7994689941406Q654.6655883789062 932.466064453125 726.998779296875 932.466064453125Q835.2651977539062 932.466064453125 895.3150634765625 861.3329162597656Q955.3649291992188 790.1997680664062 970.7982788085938 659.533203125L1037.4317626953125 110.39923095703125Q1040.2317504882812 86.39935302734375 1048.1650695800781 73.61605834960938Q1056.098388671875 60.832763671875 1074.231689453125 56.46612548828125L1118.5651245117188 47.1661376953125Q1130.7650146484375 43.73284912109375 1136.3649597167969 37.71624755859375Q1141.9649047851562 31.69964599609375 1141.9649047851562 23.06640625Q1141.9649047851562 12.5665283203125 1134.6316528320312 6.28326416015625Q1127.2984008789062 0 1111.298583984375 0H730.4651489257812Q698.5321655273438 0 698.5321655273438 24.133056640625Q698.5321655273438 40.06622314453125 720.46533203125 47.6328125L771.3321533203125 57.6661376953125Q790.1987915039062 62.03277587890625 799.0987548828125 74.81607055664062Q807.9987182617188 87.599365234375 805.19873046875 110.39923095703125L743.665283203125 630Q732.1986083984375 721.3999633789062 697.9819946289062 765.5999145507812Q663.765380859375 809.7998657226562 597.1321411132812 809.7998657226562Q554.4655151367188 809.7998657226562 509.2156066894531 787.2832336425781Q463.9656982421875 764.7666015625 411.79913330078125 719.2666625976562Z" fill="#000000" stroke="none" transform="translate(29.213495919363847,37.6) scale(0.002142857142857143,-0.002142857142857143) translate(-58.266357421875,0)" /><path d="M311.89935302734375 552.5331420898438H870.2987060546875L874.6320190429688 492.6671142578125H305.03271484375ZM387.66546630859375 25.19970703125Q387.66546630859375 14.1331787109375 379.6488952636719 7.06658935546875Q371.63232421875 0 354.265869140625 0H46.4659423828125Q29.5994873046875 0 21.1995849609375 6.933258056640625Q12.7996826171875 13.86651611328125 12.7996826171875 24.93304443359375Q12.7996826171875 34.032958984375 18.48297119140625 39.932891845703125Q24.166259765625 45.83282470703125 37.06610107421875 51.3994140625L75.5994873046875 64.16607666015625Q105.0994873046875 76.03271484375 126.74960327148438 102.61611938476562Q148.39971923828125 129.19952392578125 167.83306884765625 192.33294677734375L502.633056640625 1257.5005493164062Q514.4663696289062 1294.933837890625 505.9996643066406 1314.0671997070312Q497.532958984375 1333.2005615234375 463.899658203125 1343.9338989257812Q444.2998046875 1351.5005493164062 435.9665222167969 1358.4338073730469Q427.63323974609375 1365.3670654296875 427.63323974609375 1375.3336181640625Q427.63323974609375 1387.3668212890625 436.28314208984375 1393.6834106445312Q444.93304443359375 1400 462.49951171875 1400H868.6320190429688Q886.2318115234375 1400 894.4983825683594 1393.6834106445312Q902.7649536132812 1387.3668212890625 902.7649536132812 1375.6002807617188Q902.7649536132812 1365.1004028320312 894.9150085449219 1357.817138671875Q887.0650634765625 1350.5338745117188 868.2985229492188 1344.9338989257812Q840.99853515625 1339.533935546875 835.74853515625 1328.0006408691406Q830.49853515625 1316.4673461914062 839.565185546875 1288.2673950195312L1218.5656127929688 131.93231201171875Q1230.0322265625 96.19915771484375 1247.3655395507812 78.86590576171875Q1264.6988525390625 61.53265380859375 1294.7654418945312 55.29937744140625Q1312.798583984375 49.26611328125 1319.0485229492188 42.7161865234375Q1325.2984619140625 36.166259765625 1325.2984619140625 25.19970703125Q1325.2984619140625 14.1331787109375 1316.7652282714844 7.06658935546875Q1308.2319946289062 0 1290.8988647460938 0H876.765625Q859.6658325195312 0 851.1492614746094 7.06658935546875Q842.6326904296875 14.1331787109375 842.6326904296875 25.19970703125Q842.6326904296875 35.36627197265625 849.365966796875 41.299530029296875Q856.0992431640625 47.2327880859375 869.8991088867188 51.3994140625L927.8323364257812 60.79937744140625Q952.6656494140625 67.099365234375 955.3323669433594 82.482666015625Q957.9990844726562 97.865966796875 947.8324584960938 129.13250732421875L568.89892578125 1300.7334594726562L595.9655151367188 1329.8003540039062L241.0655517578125 198.1328125Q229.0322265625 159.36614990234375 233.448974609375 133.2327880859375Q237.86572265625 107.09942626953125 258.1324768066406 90.31607055664062Q278.39923095703125 73.53271484375 312.999267578125 61.73272705078125L361.59906005859375 50.8660888671875Q374.8656005859375 46.6661376953125 381.2655334472656 41.032867431640625Q387.66546630859375 35.39959716796875 387.66546630859375 25.19970703125Z" fill="#000000" stroke="none" transform="translate(24.400000000000006,47.6) scale(0.002142857142857143,-0.002142857142857143) translate(-12.7996826171875,0)" /><path d="M754.565673828125 85.13250732421875V173.999755859375L750.5657348632812 178.73309326171875V763.4003295898438Q750.5657348632812 779.0335083007812 745.1491088867188 786.283447265625Q739.7324829101562 793.5333862304688 727.132568359375 794.86669921875L661.7658081054688 796.7333374023438Q650.2992553710938 798.5999755859375 645.2326354980469 803.9332580566406Q640.166015625 809.2665405273438 640.166015625 817.366455078125Q640.166015625 826.9996948242188 646.1492919921875 832.7662963867188Q652.132568359375 838.5328979492188 667.0990600585938 843.7994995117188L882.866455078125 911.6995849609375Q905.2662353515625 919.7994995117188 918.6327514648438 923.0994567871094Q931.999267578125 926.3994140625 943.4991455078125 926.3994140625Q961.2989501953125 926.3994140625 970.3321838378906 916.3495178222656Q979.3654174804688 906.2996215820312 979.3654174804688 889.7998046875V105.53253173828125Q979.3654174804688 83.96600341796875 987.1153869628906 72.86605834960938Q994.8653564453125 61.76611328125 1010.8319702148438 57.6661376953125L1060.2321166992188 47.89947509765625Q1073.1653442382812 44.4661865234375 1078.8986206054688 38.332916259765625Q1084.6318969726562 32.19964599609375 1084.6318969726562 23.06640625Q1084.6318969726562 12.5665283203125 1077.031982421875 6.28326416015625Q1069.4320678710938 0 1053.4322509765625 0H829.8316040039062Q796.298583984375 0 775.43212890625 22.94976806640625Q754.565673828125 45.8995361328125 754.565673828125 85.13250732421875ZM151.666259765625 258.266357421875V763.4003295898438Q151.666259765625 779.0335083007812 146.13296508789062 786.283447265625Q140.59967041015625 793.5333862304688 127.76641845703125 794.86669921875L62.399658203125 796.7333374023438Q50.93310546875 798.5999755859375 45.866485595703125 803.9332580566406Q40.79986572265625 809.2665405273438 40.79986572265625 817.366455078125Q40.79986572265625 826.9996948242188 46.78314208984375 832.7662963867188Q52.76641845703125 838.5328979492188 67.73291015625 843.7994995117188L283.96697998046875 911.6995849609375Q307.40008544921875 920.066162109375 320.5166015625 923.2327880859375Q333.63311767578125 926.3994140625 343.53302001953125 926.3994140625Q362.1328125 926.3994140625 371.29937744140625 916.3495178222656Q380.4659423828125 906.2996215820312 380.4659423828125 889.7998046875V287.799560546875Q380.4659423828125 193.3328857421875 425.0325927734375 147.86624145507812Q469.5992431640625 102.39959716796875 543.7325439453125 102.39959716796875Q589.7991943359375 102.39959716796875 640.1658020019531 124.16622924804688Q690.5324096679688 145.932861328125 744.198974609375 192.93280029296875L782.465576171875 226.3660888671875L809.5986328125 198.46636962890625L771.1320190429688 164.29974365234375Q658.16552734375 61.833251953125 572.1322937011719 20.7833251953125Q486.09906005859375 -20.2666015625 409.4324951171875 -20.2666015625Q295.26605224609375 -20.2666015625 223.46615600585938 52.016571044921875Q151.666259765625 124.29974365234375 151.666259765625 258.266357421875Z" fill="#000000" stroke="none" transform="translate(27.362497384207593,47.6) scale(0.002142857142857143,-0.002142857142857143) translate(-40.79986572265625,0)" /><path d="M752.4323120117188 144.33294677734375 748.432373046875 149.6329345703125V1316.6008911132812Q748.432373046875 1332.2340698242188 743.0157470703125 1339.4840087890625Q737.59912109375 1346.7339477539062 724.9992065429688 1348.0672607421875L659.6324462890625 1349.9338989257812Q648.1658935546875 1351.800537109375 643.0992736816406 1357.1338195800781Q638.0326538085938 1362.4671020507812 638.0326538085938 1370.5670166015625Q638.0326538085938 1380.2002563476562 644.0159301757812 1385.9668579101562Q649.9992065429688 1391.7334594726562 664.9656982421875 1397.0000610351562L880.7330932617188 1464.900146484375Q903.3662109375 1473.0000610351562 916.6160583496094 1476.3000183105469Q929.8659057617188 1479.5999755859375 941.3657836914062 1479.5999755859375Q959.1655883789062 1479.5999755859375 968.1988220214844 1469.5500793457031Q977.2320556640625 1459.5001831054688 977.2320556640625 1443.0003662109375V105.53253173828125Q977.2320556640625 83.96600341796875 984.9820251464844 72.86605834960938Q992.7319946289062 61.76611328125 1008.6986083984375 57.6661376953125L1058.0987548828125 47.89947509765625Q1071.031982421875 44.4661865234375 1076.7652587890625 38.332916259765625Q1082.49853515625 32.19964599609375 1082.49853515625 23.06640625Q1082.49853515625 12.5665283203125 1074.8986206054688 6.28326416015625Q1067.2987060546875 0 1051.2988891601562 0H825.0316162109375Q792.5652465820312 0 772.498779296875 19.633148193359375Q752.4323120117188 39.26629638671875 752.4323120117188 74.46600341796875ZM63.23309326171875 431.43304443359375Q63.23309326171875 585.7662963867188 123.09970092773438 698.1828918457031Q182.96630859375 810.5994873046875 283.932861328125 871.5327758789062Q384.8994140625 932.466064453125 508.29925537109375 932.466064453125Q618.9657592773438 932.466064453125 699.4822082519531 882.7828674316406Q779.9986572265625 833.0996704101562 830.3651733398438 743.066650390625L790.4321899414062 710.0003662109375Q749.2656860351562 784.1334838867188 688.5491333007812 824.0334167480469Q627.8325805664062 863.933349609375 552.6992797851562 863.933349609375Q481.53265380859375 863.933349609375 424.0660095214844 821.0Q366.599365234375 778.066650390625 333.08270263671875 687.8832397460938Q299.5660400390625 597.6998291015625 299.5660400390625 455.4329833984375Q299.5660400390625 325.3662109375 330.4493408203125 239.48281860351562Q361.3326416015625 153.59942626953125 415.4159240722656 111.06607055664062Q469.49920654296875 68.53271484375 538.9658203125 68.53271484375Q604.332275390625 68.53271484375 666.8488464355469 106.3492431640625Q729.3654174804688 144.165771484375 783.765380859375 224.26556396484375L809.4984741210938 189.5325927734375Q732.6651611328125 83.73284912109375 645.3821105957031 30.799774169921875Q558.0990600585938 -22.13330078125 453.4993896484375 -22.13330078125Q340.83282470703125 -22.13330078125 252.61624145507812 34.63330078125Q164.399658203125 91.39990234375 113.81637573242188 193.58316040039062Q63.23309326171875 295.76641845703125 63.23309326171875 431.43304443359375Z" fill="#000000" stroke="none" transform="translate(29.749280308314738,47.6) scale(0.002142857142857143,-0.002142857142857143) translate(-63.23309326171875,0)" /><path d="M399.79913330078125 890.9998168945312V105.53253173828125Q399.79913330078125 83.96600341796875 407.5491027832031 72.86605834960938Q415.299072265625 61.76611328125 431.26568603515625 57.6661376953125L480.66583251953125 47.89947509765625Q493.59906005859375 44.4661865234375 499.33233642578125 38.332916259765625Q505.06561279296875 32.19964599609375 505.06561279296875 23.06640625Q505.06561279296875 12.5665283203125 497.4656982421875 6.28326416015625Q489.86578369140625 0 473.865966796875 0H94.4659423828125Q79.43280029296875 0 71.84954833984375 6.28326416015625Q64.26629638671875 12.5665283203125 64.26629638671875 23.06640625Q64.26629638671875 31.46630859375 69.86624145507812 37.48291015625Q75.4661865234375 43.49951171875 87.66607666015625 47.1661376953125L139.53289794921875 57.6661376953125Q155.73284912109375 62.03277587890625 163.36614990234375 72.86605834960938Q170.99945068359375 83.6993408203125 170.99945068359375 104.7991943359375V764.600341796875Q170.99945068359375 780.2335205078125 165.58282470703125 787.4834594726562Q160.16619873046875 794.7333984375 147.5662841796875 796.0667114257812L82.19952392578125 797.933349609375Q70.73297119140625 799.7999877929688 65.66635131835938 805.1332702636719Q60.5997314453125 810.466552734375 60.5997314453125 818.5664672851562Q60.5997314453125 828.19970703125 66.5830078125 833.96630859375Q72.5662841796875 839.73291015625 87.53277587890625 844.99951171875L303.3001708984375 912.8995971679688Q326.7332763671875 921.2661743164062 339.84979248046875 924.4328002929688Q352.96630859375 927.5994262695312 362.8662109375 927.5994262695312Q381.46600341796875 927.5994262695312 390.632568359375 917.5495300292969Q399.79913330078125 907.4996337890625 399.79913330078125 890.9998168945312ZM271.06610107421875 1085.2325439453125Q205.99957275390625 1085.2325439453125 165.9329833984375 1123.3825378417969Q125.86639404296875 1161.5325317382812 125.86639404296875 1220.032470703125Q125.86639404296875 1278.7657470703125 166.16632080078125 1316.5157470703125Q206.46624755859375 1354.2657470703125 271.06610107421875 1354.2657470703125Q336.63262939453125 1354.2657470703125 377.2992248535156 1316.2657470703125Q417.9658203125 1278.2657470703125 417.9658203125 1220.032470703125Q417.9658203125 1161.5325317382812 377.18255615234375 1123.3825378417969Q336.3992919921875 1085.2325439453125 271.06610107421875 1085.2325439453125Z" fill="#000000" stroke="none" transform="translate(32.08342054094587,47.6) scale(0.002142857142857143,-0.002142857142857143) translate(-60.5997314453125,0)" /><path d="M548.6325073242188 932.1994018554688Q689.3656616210938 932.1994018554688 797.3655395507812 871.2994384765625Q905.3654174804688 810.3994750976562 966.5986938476562 702.2495422363281Q1027.8319702148438 594.099609375 1027.8319702148438 452.46636962890625Q1027.8319702148438 314.73309326171875 965.2153625488281 207.53317260742188Q902.5987548828125 100.333251953125 792.6322021484375 39.0999755859375Q682.6656494140625 -22.13330078125 538.9658203125 -22.13330078125Q398.232666015625 -22.13330078125 290.5994567871094 38.449981689453125Q182.96624755859375 99.03326416015625 122.06631469726562 206.49984741210938Q61.1663818359375 313.9664306640625 61.1663818359375 454.3330078125Q61.1663818359375 593.3662719726562 123.19964599609375 700.9995422363281Q185.23291015625 808.6328125 294.96612548828125 870.4161071777344Q404.6993408203125 932.1994018554688 548.6325073242188 932.1994018554688ZM608.6656494140625 37.0660400390625Q680.9322509765625 45.99932861328125 726.9989013671875 100.482666015625Q773.0655517578125 154.96600341796875 788.715576171875 252.08273315429688Q804.3656005859375 349.199462890625 784.63232421875 485.43292236328125Q765.1657104492188 622.3663940429688 722.1324462890625 711.8831481933594Q679.0991821289062 801.39990234375 617.4325866699219 842.0499572753906Q555.7659912109375 882.7000122070312 480.5660400390625 873.0000610351562Q406.8994140625 863.8334350585938 360.9494323730469 808.7667541503906Q314.99945068359375 753.7000732421875 300.4161071777344 656.8333435058594Q285.832763671875 559.9666137695312 305.0660400390625 424.39984130859375Q324.53265380859375 289.5997314453125 368.04925537109375 199.83297729492188Q411.56585693359375 110.06622314453125 473.2157897949219 68.96615600585938Q534.86572265625 27.8660888671875 608.6656494140625 37.0660400390625Z" fill="#000000" stroke="none" transform="translate(33.18584742954799,47.6) scale(0.002142857142857143,-0.002142857142857143) translate(-61.1663818359375,0)" /><path d="M356.93304443359375 691.4329833984375H1192.1323852539062V632.0336303710938H356.93304443359375ZM495.1326904296875 108.4658203125Q495.1326904296875 91.31590488978793 506.3826599121094 81.09096636090959Q517.6326293945312 70.86602783203125 539.06591796875 65.9993896484375L612.199462890625 53.26605224609375Q638.9325561523438 46.1661376953125 638.9325561523438 25.368015977202873Q638.9325561523438 13.922792528496416 630.84853771121 6.961396264248208Q622.7645192700763 0 605.1329345703125 0H126.666015625Q109.30109352289244 0 101.0837437829306 6.961396264248208Q92.86639404296875 13.922792528496416 92.86639404296875 25.368015977202873Q92.86639404296875 46.1661376953125 119.5994873046875 53.26605224609375L192.7330322265625 65.9993896484375Q214.66632080078125 70.86602783203125 225.66629028320312 81.09096636090959Q236.666259765625 91.31590488978793 236.666259765625 108.4658203125V1291.5341796875Q236.666259765625 1308.6840951102122 225.66629028320312 1319.0257023402623Q214.66632080078125 1329.3673095703125 192.7330322265625 1334.0006103515625L119.5994873046875 1346.7339477539062Q92.86639404296875 1353.695121146537 92.86639404296875 1374.80029296875Q92.86639404296875 1386.6334838867188 101.0837437829306 1393.3167419433594Q109.30109352289244 1400 126.666015625 1400H605.1329345703125Q622.7645192700763 1400 630.84853771121 1393.3167419433594Q638.9325561523438 1386.6334838867188 638.9325561523438 1374.80029296875Q638.9325561523438 1353.695121146537 612.199462890625 1346.7339477539062L539.06591796875 1334.0006103515625Q517.6326293945312 1329.3673095703125 506.3826599121094 1319.0257023402623Q495.1326904296875 1308.6840951102122 495.1326904296875 1291.5341796875ZM1354.0654296875 108.4658203125Q1354.0654296875 91.31590488978793 1365.3153991699219 81.09096636090959Q1376.5653686523438 70.86602783203125 1397.9986572265625 65.9993896484375L1471.1322021484375 53.26605224609375Q1497.8652954101562 46.1661376953125 1497.8652954101562 25.368015977202873Q1497.8652954101562 13.922792528496416 1489.7812769690227 6.961396264248208Q1481.6972585278888 0 1464.065673828125 0H985.5987548828125Q968.2338327807049 0 960.0164830407431 6.961396264248208Q951.7991333007812 13.922792528496416 951.7991333007812 25.368015977202873Q951.7991333007812 46.1661376953125 978.5322265625 53.26605224609375L1051.665771484375 65.9993896484375Q1073.5990600585938 70.86602783203125 1084.5990295410156 81.09096636090959Q1095.5989990234375 91.31590488978793 1095.5989990234375 108.4658203125V1291.5341796875Q1095.5989990234375 1308.6840951102122 1084.5990295410156 1319.0257023402623Q1073.5990600585938 1329.3673095703125 1051.665771484375 1334.0006103515625L978.5322265625 1346.7339477539062Q951.7991333007812 1353.695121146537 951.7991333007812 1374.80029296875Q951.7991333007812 1386.6334838867188 960.0164830407431 1393.3167419433594Q968.2338327807049 1400 985.5987548828125 1400H1464.065673828125Q1481.6972585278888 1400 1489.7812769690227 1393.3167419433594Q1497.8652954101562 1386.6334838867188 1497.8652954101562 1374.80029296875Q1497.8652954101562 1353.695121146537 1471.1322021484375 1346.7339477539062L1397.9986572265625 1334.0006103515625Q1376.5653686523438 1329.3673095703125 1365.3153991699219 1319.0257023402623Q1354.0654296875 1308.6840951102122 1354.0654296875 1291.5341796875Z" fill="#000000" stroke="none" transform="translate(24.400000000000006,27.6) scale(0.002142857142857143,-0.002142857142857143) translate(-92.86639404296875,0)" /><path d="M548.6325073242188 932.1994018554688Q689.3656616210938 932.1994018554688 797.3655395507812 871.2994384765625Q905.3654174804688 810.3994750976562 966.5986938476562 702.2495422363281Q1027.8319702148438 594.099609375 1027.8319702148438 452.46636962890625Q1027.8319702148438 314.73309326171875 965.2153625488281 207.53317260742188Q902.5987548828125 100.333251953125 792.6322021484375 39.0999755859375Q682.6656494140625 -22.13330078125 538.9658203125 -22.13330078125Q398.232666015625 -22.13330078125 290.5994567871094 38.449981689453125Q182.96624755859375 99.03326416015625 122.06631469726562 206.49984741210938Q61.1663818359375 313.9664306640625 61.1663818359375 454.3330078125Q61.1663818359375 593.3662719726562 123.19964599609375 700.9995422363281Q185.23291015625 808.6328125 294.96612548828125 870.4161071777344Q404.6993408203125 932.1994018554688 548.6325073242188 932.1994018554688ZM608.6656494140625 37.0660400390625Q680.9322509765625 45.99932861328125 726.9989013671875 100.482666015625Q773.0655517578125 154.96600341796875 788.715576171875 252.08273315429688Q804.3656005859375 349.199462890625 784.63232421875 485.43292236328125Q765.1657104492188 622.3663940429688 722.1324462890625 711.8831481933594Q679.0991821289062 801.39990234375 617.4325866699219 842.0499572753906Q555.7659912109375 882.7000122070312 480.5660400390625 873.0000610351562Q406.8994140625 863.8334350585938 360.9494323730469 808.7667541503906Q314.99945068359375 753.7000732421875 300.4161071777344 656.8333435058594Q285.832763671875 559.9666137695312 305.0660400390625 424.39984130859375Q324.53265380859375 289.5997314453125 368.04925537109375 199.83297729492188Q411.56585693359375 110.06622314453125 473.2157897949219 68.96615600585938Q534.86572265625 27.8660888671875 608.6656494140625 37.0660400390625Z" fill="#000000" stroke="none" transform="translate(27.56071193150112,27.6) scale(0.002142857142857143,-0.002142857142857143) translate(-61.1663818359375,0)" /><path d="M754.565673828125 85.13250732421875V173.999755859375L750.5657348632812 178.73309326171875V763.4003295898438Q750.5657348632812 779.0335083007812 745.1491088867188 786.283447265625Q739.7324829101562 793.5333862304688 727.132568359375 794.86669921875L661.7658081054688 796.7333374023438Q650.2992553710938 798.5999755859375 645.2326354980469 803.9332580566406Q640.166015625 809.2665405273438 640.166015625 817.366455078125Q640.166015625 826.9996948242188 646.1492919921875 832.7662963867188Q652.132568359375 838.5328979492188 667.0990600585938 843.7994995117188L882.866455078125 911.6995849609375Q905.2662353515625 919.7994995117188 918.6327514648438 923.0994567871094Q931.999267578125 926.3994140625 943.4991455078125 926.3994140625Q961.2989501953125 926.3994140625 970.3321838378906 916.3495178222656Q979.3654174804688 906.2996215820312 979.3654174804688 889.7998046875V105.53253173828125Q979.3654174804688 83.96600341796875 987.1153869628906 72.86605834960938Q994.8653564453125 61.76611328125 1010.8319702148438 57.6661376953125L1060.2321166992188 47.89947509765625Q1073.1653442382812 44.4661865234375 1078.8986206054688 38.332916259765625Q1084.6318969726562 32.19964599609375 1084.6318969726562 23.06640625Q1084.6318969726562 12.5665283203125 1077.031982421875 6.28326416015625Q1069.4320678710938 0 1053.4322509765625 0H829.8316040039062Q796.298583984375 0 775.43212890625 22.94976806640625Q754.565673828125 45.8995361328125 754.565673828125 85.13250732421875ZM151.666259765625 258.266357421875V763.4003295898438Q151.666259765625 779.0335083007812 146.13296508789062 786.283447265625Q140.59967041015625 793.5333862304688 127.76641845703125 794.86669921875L62.399658203125 796.7333374023438Q50.93310546875 798.5999755859375 45.866485595703125 803.9332580566406Q40.79986572265625 809.2665405273438 40.79986572265625 817.366455078125Q40.79986572265625 826.9996948242188 46.78314208984375 832.7662963867188Q52.76641845703125 838.5328979492188 67.73291015625 843.7994995117188L283.96697998046875 911.6995849609375Q307.40008544921875 920.066162109375 320.5166015625 923.2327880859375Q333.63311767578125 926.3994140625 343.53302001953125 926.3994140625Q362.1328125 926.3994140625 371.29937744140625 916.3495178222656Q380.4659423828125 906.2996215820312 380.4659423828125 889.7998046875V287.799560546875Q380.4659423828125 193.3328857421875 425.0325927734375 147.86624145507812Q469.5992431640625 102.39959716796875 543.7325439453125 102.39959716796875Q589.7991943359375 102.39959716796875 640.1658020019531 124.16622924804688Q690.5324096679688 145.932861328125 744.198974609375 192.93280029296875L782.465576171875 226.3660888671875L809.5986328125 198.46636962890625L771.1320190429688 164.29974365234375Q658.16552734375 61.833251953125 572.1322937011719 20.7833251953125Q486.09906005859375 -20.2666015625 409.4324951171875 -20.2666015625Q295.26605224609375 -20.2666015625 223.46615600585938 52.016571044921875Q151.666259765625 124.29974365234375 151.666259765625 258.266357421875Z" fill="#000000" stroke="none" transform="translate(29.782138192313063,27.6) scale(0.002142857142857143,-0.002142857142857143) translate(-40.79986572265625,0)" /><path d="M373.59930419921875 508.99969482421875Q373.59930419921875 648.099609375 413.48260498046875 742.3828735351562Q453.36590576171875 836.6661376953125 516.7658386230469 884.5661010742188Q580.165771484375 932.466064453125 650.5989990234375 932.466064453125Q734.298828125 932.466064453125 779.94873046875 883.8327941894531Q825.5986328125 835.1995239257812 825.5986328125 747.1996459960938Q825.5986328125 673.999755859375 793.5153198242188 637.4998168945312Q761.4320068359375 600.9998779296875 711.69873046875 600.9998779296875Q663.0988159179688 600.9998779296875 637.6155395507812 627.91650390625Q612.1322631835938 654.8331298828125 611.1989135742188 705.1997680664062L610.7322387695312 738.133056640625Q610.2322387695312 770.8663940429688 596.1655883789062 787.0997314453125Q582.0989379882812 803.3330688476562 549.265625 803.3330688476562Q511.86566162109375 803.3330688476562 477.0990295410156 770.8997192382812Q442.3323974609375 738.4663696289062 420.1324157714844 673.0830078125Q397.93243408203125 607.6996459960938 397.93243408203125 508.26629638671875ZM390.46588134765625 888.1997680664062 397.93243408203125 608.8655395507812V107.86590576171875Q397.93243408203125 88.33270263671875 407.09906005859375 77.28274536132812Q416.26568603515625 66.2327880859375 437.598876953125 62.6661376953125L530.4656372070312 48.7327880859375Q545.0321655273438 46.39947509765625 551.7154235839844 40.3662109375Q558.398681640625 34.33294677734375 558.398681640625 23.33306884765625Q558.398681640625 12.5665283203125 550.2821044921875 6.28326416015625Q542.16552734375 0 526.4656982421875 0H93.76593017578125Q78.03277587890625 0 70.2161865234375 6.5166015625Q62.39959716796875 13.033203125 62.39959716796875 23.29974365234375Q62.39959716796875 31.9329833984375 68.5828857421875 38.18292236328125Q74.76617431640625 44.432861328125 87.4327392578125 48.0994873046875L137.66619873046875 57.6661376953125Q153.86614990234375 61.76611328125 161.49945068359375 72.4993896484375Q169.13275146484375 83.232666015625 169.13275146484375 103.399169921875V764.9337158203125Q169.13275146484375 780.8002319335938 163.83279418945312 788.4001770019531Q158.5328369140625 796.0001220703125 145.93292236328125 797.3334350585938L79.39947509765625 799.2000732421875Q68.6329345703125 801.0667114257812 63.44964599609375 806.3999938964844Q58.266357421875 811.7332763671875 58.266357421875 819.599853515625Q58.266357421875 828.999755859375 64.38296508789062 835.1330261230469Q70.49957275390625 841.2662963867188 85.66607666015625 846.2662353515625L299.8001708984375 909.1995849609375Q327.0665283203125 919.199462890625 340.2830505371094 922.2327575683594Q353.49957275390625 925.2660522460938 361.79949951171875 925.2660522460938Q375.29937744140625 925.2660522460938 381.9493103027344 916.3161315917969Q388.5992431640625 907.3662109375 390.46588134765625 888.1997680664062Z" fill="#000000" stroke="none" transform="translate(32.16892111642021,27.6) scale(0.002142857142857143,-0.002142857142857143) translate(-58.266357421875,0)" /></svg>