<svg baseProfile="full" height="207.0mm" version="1.1" viewBox="0 0 192.0 207.0" width="192.0mm" xmlns="http://www.w3.org/2000/svg" xmlns:ev="http://www.w3.org/2001/xml-events" xmlns:xlink="http://www.w3.org/1999/xlink"><defs /><path d="M 0,0 L 192.0,0 l 0,5.9 l 6.4,0 l 0,6.1 l -6.4,0 l 0,5.9 l 6.4,0 l 0,6.1 l -6.4,0 l 0,5.9 l 6.4,0 l 0,6.1 l -6.4,0 l 0,5.9 l 6.4,0 l 0,6.1 L 0,48.0 l 0,-5.9 l -6.4,0 l 0,-6.1 l 6.4,0 l 0,-5.9 l -6.4,0 l 0,-6.1 l 6.4,0 l 0,-5.9 l -6.4,0 l 0,-6.1 l 6.4,0 l 0,-5.9 l -6.4,0 l 0,-6.1 Z" fill="none" stroke="#0000FF" stroke-width="0.01" transform="translate(0,0.0)" /><path d="M 0,0 L 192.0,0 l 6.4,0 l 0,6.1 l -6.4,0 l 0,5.9 l 6.4,0 l 0,6.1 l -6.4,0 l 0,5.9 l 6.4,0 l 0,6.1 l -6.4,0 l 0,5.9 l 6.4,0 l 0,6.1 l -6.4,0 l 0,5.9 L 0,48.0 l -6.4,0 l 0,-6.1 l 6.4,0 l 0,-5.9 l -6.4,0 l 0,-6.1 l 6.4,0 l 0,-5.9 l -6.4,0 l 0,-6.1 l 6.4,0 l 0,-5.9 l -6.4,0 l 0,-6.1 l 6.4,0 l 0,-5.9 Z" fill="none" stroke="#0000FF" stroke-width="0.01" transform="translate(0,53.0)" /><path d="M 0,0 L 192.0,0 l 0,5.9 l 6.4,0 l 0,6.1 l -6.4,0 l 0,5.9 l 6.4,0 l 0,6.1 l -6.4,0 l 0,5.9 l 6.4,0 l 0,6.1 l -6.4,0 l 0,5.9 l 6.4,0 l 0,6.1 L 0,48.0 l 0,-5.9 l -6.4,0 l 0,-6.1 l 6.4,0 l 0,-5.9 l -6.4,0 l 0,-6.1 l 6.4,0 l 0,-5.9 l -6.4,0 l 0,-6.1 l 6.4,0 l 0,-5.9 l -6.4,0 l 0,-6.1 Z" fill="none" stroke="#0000FF" stroke-width="0.01" transform="translate(0,106.0)" /><path d="M 0,0 L 192.0,0 l 6.4,0 l 0,6.1 l -6.4,0 l 0,5.9 l 6.4,0 l 0,6.1 l -6.4,0 l 0,5.9 l 6.4,0 l 0,6.1 l -6.4,0 l 0,5.9 l 6.4,0 l 0,6.1 l -6.4,0 l 0,5.9 L 0,48.0 l -6.4,0 l 0,-6.1 l 6.4,0 l 0,-5.9 l -6.4,0 l 0,-6.1 l 6.4,0 l 0,-5.9 l -6.4,0 l 0,-6.1 l 6.4,0 l 0,-5.9 l -6.4,0 l 0,-6.1 l 6.4,0 l 0,-5.9 Z" fill="none" stroke="#0000FF" stroke-width="0.01" transform="translate(0,159.0)" /></svg>